<?xml version="1.0" standalone="no"?>
<!DOCTYPE svg PUBLIC "-//W3C//DTD SVG 1.1//EN" "http://www.w3.org/Graphics/SVG/1.1/DTD/svg11.dtd" >
<svg xmlns="http://www.w3.org/2000/svg" xmlns:xlink="http://www.w3.org/1999/xlink" version="1.1">
<metadata>
Created by FontForge 20160407 at Sun Aug  7 16:24:23 2016
 By Jimmy Warting
Copyright (c) 2015 by Luzi Type. All rights reserved.
</metadata>
<defs>
<font id="fff-Light" horiz-adv-x="600" >
  <font-face 
    font-family="fff"
    font-weight="300"
    font-stretch="normal"
    units-per-em="1000"
    panose-1="0 0 4 0 0 0 0 0 0 0"
    ascent="800"
    descent="-200"
    x-height="532"
    cap-height="750"
    bbox="-51 -344 1286 1020"
    underline-thickness="50"
    underline-position="-100"
    unicode-range="U+000D-FB04"
  />
<missing-glyph horiz-adv-x="500" 
 />
    <glyph glyph-name="ff" unicode="ff" horiz-adv-x="686" 
d="M666 710h-59q-43 0 -59.5 -18t-16.5 -59v-101h121v-52h-121v-480h-57v480h-306v-480h-57v480h-91v52h91v99q0 76 32 103.5t87 27.5h73v-52h-59q-43 0 -59.5 -18t-16.5 -59v-101h306v99q0 76 32 103.5t87 27.5h73v-52z" />
    <glyph glyph-name="fi" unicode="fi" horiz-adv-x="602" 
d="M522 532v-532h-57v480h-297v-480h-57v480h-91v52h91v99q0 76 32 103.5t87 27.5h73v-52h-59q-43 0 -59.5 -18t-16.5 -59v-101h354z" />
    <glyph glyph-name="fl" unicode="fl" horiz-adv-x="607" 
d="M522 0h-57v480h-297v-480h-57v480h-91v52h91v99q0 76 32 103.5t87 27.5h73v-52h-59q-43 0 -59.5 -18t-16.5 -59v-101h297v230h57v-762z" />
    <glyph glyph-name="ffi" unicode="ffi" horiz-adv-x="965" 
d="M885 532v-532h-57v480h-297v-480h-57v480h-306v-480h-57v480h-91v52h91v99q0 76 32 103.5t87 27.5h73v-52h-59q-43 0 -59.5 -18t-16.5 -59v-101h306v99q0 76 32 103.5t87 27.5h73v-52h-59q-43 0 -59.5 -18t-16.5 -59v-101h354z" />
    <glyph glyph-name="ffl" unicode="ffl" horiz-adv-x="970" 
d="M885 0h-57v480h-297v-480h-57v480h-306v-480h-57v480h-91v52h91v99q0 76 32 103.5t87 27.5h73v-52h-59q-43 0 -59.5 -18t-16.5 -59v-101h306v99q0 76 32 103.5t87 27.5h73v-52h-59q-43 0 -59.5 -18t-16.5 -59v-101h297v230h57v-762z" />
    <glyph glyph-name="T_h" unicode="Th" horiz-adv-x="1209" 
d="M596 697h-258v-697h-60v697h-258v53h576v-53zM951 542q82 0 130 -43.5t48 -130.5v-368h-57v359q0 64 -35.5 97.5t-92.5 33.5q-76 0 -131 -54.5t-55 -149.5v-286h-57v762h57v-331q56 111 193 111z" />
    <glyph glyph-name="f_f_j" unicode="ffj" horiz-adv-x="959" 
d="M884 532v-607q0 -76 -32 -103.5t-87 -27.5h-41v52h27q43 0 59.5 18t16.5 59v557h-296v-480h-57v480h-306v-480h-57v480h-91v52h91v99q0 76 32 103.5t87 27.5h73v-52h-59q-43 0 -59.5 -18t-16.5 -59v-101h306v99q0 76 32 103.5t87 27.5h73v-52h-59q-43 0 -59.5 -18
t-16.5 -59v-101h353z" />
    <glyph glyph-name="f_f_t" unicode="fft" horiz-adv-x="1058" 
d="M1028 0h-81q-55 0 -87 27.5t-32 103.5v349h-297v-480h-57v480h-306v-480h-57v480h-91v52h91v99q0 76 32 103.5t87 27.5h73v-52h-59q-43 0 -59.5 -18t-16.5 -59v-101h306v99q0 76 32 103.5t87 27.5h73v-52h-59q-43 0 -59.5 -18t-16.5 -59v-101h297v159l57 16v-175h132v-52
h-132v-351q0 -41 16.5 -59t59.5 -18h67v-52z" />
    <glyph glyph-name="f_j" unicode="fj" horiz-adv-x="595" 
d="M520 532v-607q0 -76 -32 -103.5t-87 -27.5h-41v52h27q43 0 59.5 18t16.5 59v557h-295v-480h-57v480h-91v52h91v99q0 76 32 103.5t87 27.5h73v-52h-59q-43 0 -59.5 -18t-16.5 -59v-101h352z" />
    <glyph glyph-name="f_t" unicode="ft" horiz-adv-x="695" 
d="M665 0h-81q-55 0 -87 27.5t-32 103.5v349h-297v-480h-57v480h-91v52h91v99q0 76 32 103.5t87 27.5h73v-52h-59q-43 0 -59.5 -18t-16.5 -59v-101h297v159l57 16v-175h132v-52h-132v-351q0 -41 16.5 -59t59.5 -18h67v-52z" />
    <glyph glyph-name="t_t" unicode="tt" horiz-adv-x="702" 
d="M672 0h-81q-55 0 -87 27.5t-32 103.5v349h-297v-351q0 -41 16.5 -59t59.5 -18h67v-52h-81q-55 0 -87 27.5t-32 103.5v349h-108v52h108v159l57 16v-175h297v159l57 16v-175h132v-52h-132v-351q0 -41 16.5 -59t59.5 -18h67v-52z" />
    <glyph glyph-name=".notdef" horiz-adv-x="500" 
 />
    <glyph glyph-name=".null" horiz-adv-x="0" 
 />
    <glyph glyph-name="nonmarkingreturn" horiz-adv-x="333" 
 />
    <glyph glyph-name="CR" unicode="&#xd;" horiz-adv-x="500" 
 />
    <glyph glyph-name="space" unicode=" " horiz-adv-x="230" 
 />
    <glyph glyph-name="exclam" unicode="!" horiz-adv-x="264" 
d="M90 88h84v-88h-84v88zM164 402l-12 -190h-42l-12 190v348h66v-348z" />
    <glyph glyph-name="quotedbl" unicode="&#x22;" horiz-adv-x="370" 
d="M220 788h80l-14 -292h-51zM60 788h80l-14 -292h-51z" />
    <glyph glyph-name="numbersign" unicode="#" horiz-adv-x="635" 
d="M390 459h-141l-25 -161h141zM442 459l-24 -161h161v-43h-168l-39 -255h-53l39 255h-141l-39 -255h-53l39 255h-134v43h141l25 161h-150v43h156l37 238h52l-36 -238h141l37 238h52l-36 -238h146v-43h-153z" />
    <glyph glyph-name="dollar" unicode="$" horiz-adv-x="640" 
d="M337 34q83 0 136 39.5t53 107.5q0 31 -12.5 55.5t-29 40t-45.5 29t-50.5 20t-54.5 15.5l-21 -306q8 -1 24 -1zM137 570q0 -66 40.5 -100.5t117.5 -58.5l21 306h-3q-78 0 -127 -37t-49 -110zM360 713l-21 -315q52 -15 79 -23.5t65 -26.5t57 -37.5t33 -51t14 -72.5
q0 -100 -70 -153t-179 -53q-19 0 -29 1l-8 -118h-44l9 124q-98 19 -156 85t-60 159h63q4 -78 46.5 -126t109.5 -64l22 311q-46 13 -79 27.5t-67 38.5t-51.5 61.5t-17.5 86.5q0 95 64.5 148t174.5 53h5l6 91h44l-7 -94q90 -11 148 -61t63 -140h-63q-4 65 -45.5 102t-105.5 47
z" />
    <glyph glyph-name="percent" unicode="%" horiz-adv-x="914" 
d="M817 163q0 55 -34 89.5t-85 34.5t-84.5 -34.5t-33.5 -89.5q0 -56 33.5 -91t84.5 -35t85 35t34 91zM523 162q0 77 50 126t123 49q77 0 127.5 -48.5t50.5 -126.5q0 -76 -51 -126t-127 -50q-73 0 -123 50t-50 126zM334 586q0 55 -34 89.5t-85 34.5t-84.5 -34.5t-33.5 -89.5
q0 -56 33.5 -91t84.5 -35t85 35t34 91zM249 0h-52l478 750h52zM40 585q0 77 50 126t123 49q77 0 127.5 -48.5t50.5 -126.5q0 -76 -51 -126t-127 -50q-73 0 -123 50t-50 126z" />
    <glyph glyph-name="ampersand" unicode="&#x26;" horiz-adv-x="749" 
d="M325 40q54 0 105 21.5t84 61.5l-235 237q-142 -41 -142 -158q0 -77 55 -119.5t133 -42.5zM198 582q0 -67 58 -125l41 -41q75 18 115 62t40 101q0 56 -37 89t-90 33t-90 -31.5t-37 -87.5zM634 0l-83 84q-89 -96 -231 -96q-101 0 -173 55.5t-72 152.5q0 70 42 121.5
t125 75.5l-38 41q-63 67 -63 145q0 81 55.5 126t132.5 45q75 0 127.5 -44t52.5 -123q0 -138 -175 -204l211 -211q41 56 41 174v12h56v-12q0 -126 -60 -214l127 -128h-75z" />
    <glyph glyph-name="quotesingle" unicode="'" horiz-adv-x="200" 
d="M60 788h80l-14 -292h-51z" />
    <glyph glyph-name="parenleft" unicode="(" horiz-adv-x="365" 
d="M93 341q0 -156 68.5 -285t183.5 -207l-26 -36q-125 75 -202 214.5t-77 313.5t77 313.5t202 214.5l26 -36q-115 -78 -183.5 -207t-68.5 -285z" />
    <glyph glyph-name="parenright" unicode=")" horiz-adv-x="375" 
d="M282 341q0 156 -68.5 285t-183.5 207l26 36q125 -75 202 -214.5t77 -313.5t-77 -313.5t-202 -214.5l-26 36q115 78 183.5 207t68.5 285z" />
    <glyph glyph-name="asterisk" unicode="*" horiz-adv-x="395" 
d="M57 710l116 -42l-5 125h60l-7 -125l116 41l18 -50l-118 -39l75 -94l-45 -32l-69 98l-69 -100l-46 33l74 95l-117 37z" />
    <glyph glyph-name="plus" unicode="+" horiz-adv-x="500" 
d="M460 266h-182v-193h-55v193h-183v53h183v193h55v-193h182v-53z" />
    <glyph glyph-name="comma" unicode="," horiz-adv-x="223" 
d="M183 91v-96q0 -140 -132 -159l-11 38q58 14 76 45.5t18 87.5h-43v84h92z" />
    <glyph glyph-name="hyphen" unicode="-" horiz-adv-x="428" 
d="M368 349v-52h-308v52h308z" />
    <glyph glyph-name="period" unicode="." horiz-adv-x="187" 
d="M50 91h87v-91h-87v91z" />
    <glyph glyph-name="slash" unicode="/" horiz-adv-x="448" 
d="M408 830l-331 -922h-57l331 922h57z" />
    <glyph glyph-name="zero" unicode="0" 
d="M302 46q89 0 133 86t45 232v5q0 145 -44.5 234t-137.5 89q-89 0 -133 -86t-45 -232v-5q0 -144 44 -233.5t135 -89.5h3zM299 -12q-122 0 -180 100.5t-58 280.5t58.5 280.5t181.5 100.5q122 0 180 -100.5t58 -280.5t-58.5 -280.5t-181.5 -100.5z" />
    <glyph glyph-name="one" unicode="1" 
d="M518 0h-417v55h181v608q-69 -58 -181 -75v51q109 21 187 98h50v-682h180v-55z" />
    <glyph glyph-name="two" unicode="2" 
d="M554 0h-502v59l188 172q14 13 43 39t41 37t34.5 32.5t32 33t25.5 30t22.5 32t14.5 31t10.5 34.5t2.5 36q0 74 -47 116t-121 42q-75 0 -129 -45t-61 -135h-61q7 113 80 174.5t174 61.5q96 0 161 -55.5t65 -152.5q0 -44 -13 -82t-47 -80t-64 -72t-91 -85l-185 -168h427v-55
z" />
    <glyph glyph-name="three" unicode="3" 
d="M395 382q75 -17 117 -68t42 -120q0 -86 -65.5 -146t-183.5 -60q-117 0 -188.5 62.5t-71.5 173.5h63v-8q0 -82 55.5 -128.5t142.5 -46.5q84 0 133 42t49 106q0 68 -56 114.5t-156 46.5h-18v51h15q93 0 147 47t54 113q0 64 -50.5 99t-120.5 35q-79 0 -132.5 -46.5
t-53.5 -134.5h-60q0 113 71.5 174.5t181.5 61.5q100 0 164 -50.5t64 -135.5q0 -66 -39 -114.5t-104 -67.5z" />
    <glyph glyph-name="four" unicode="4" 
d="M390 688l-304 -450h304v450zM572 185h-127v-185h-55v187h-362v63l328 487h89v-499h127v-53z" />
    <glyph glyph-name="five" unicode="5" 
d="M317 475q111 0 171.5 -65.5t60.5 -168.5q0 -109 -65.5 -181t-183.5 -72q-106 0 -177 59t-71 166v11h62v-15q0 -82 53.5 -125t131.5 -43q89 0 140 55t51 139q0 81 -48 133.5t-136 52.5q-92 0 -160 -60h-59l61 376h354v-54h-313l-43 -263q68 55 171 55z" />
    <glyph glyph-name="six" unicode="6" 
d="M311 44q87 0 135.5 57t48.5 134q0 74 -46.5 126t-130.5 52q-86 0 -136 -54.5t-50 -130.5q0 -75 47 -129.5t132 -54.5zM326 474q109 0 171.5 -70t62.5 -166q0 -63 -27.5 -119t-85 -93.5t-133.5 -37.5q-54 0 -100.5 19.5t-87 61.5t-63.5 118t-23 180q0 93 19.5 164
t48.5 111.5t69 65.5t75 33.5t72 8.5q89 0 150.5 -49t65.5 -144h-64q-1 64 -46 100t-110 36q-30 0 -58 -7.5t-59 -30t-53.5 -58.5t-37 -97t-14.5 -141v-48q29 82 89.5 122.5t138.5 40.5z" />
    <glyph glyph-name="seven" unicode="7" 
d="M546 678l-311 -678h-59l311 677h-473v60h532v-59z" />
    <glyph glyph-name="eight" unicode="8" 
d="M300 39q90 0 137 44.5t47 113.5t-48 111t-136 42t-136 -42t-48 -111t47 -113.5t137 -44.5zM136 559q0 -60 43.5 -98.5t120.5 -38.5t120.5 38.5t43.5 98.5q0 57 -40.5 98t-123.5 41t-123.5 -41t-40.5 -98zM393 383q71 -20 113 -70.5t42 -121.5q0 -90 -66.5 -146.5
t-181.5 -56.5t-181.5 56.5t-66.5 146.5q0 71 42 121.5t113 70.5q-135 52 -135 179q0 89 65 138.5t163 49.5t163 -49.5t65 -138.5q0 -127 -135 -179z" />
    <glyph glyph-name="nine" unicode="9" 
d="M283 323q90 0 139 55t49 130t-50 129.5t-138 54.5t-136.5 -55t-48.5 -131q0 -75 48.5 -129t136.5 -54zM284 750q54 0 101 -19.5t87.5 -61.5t64 -118.5t23.5 -181.5q0 -92 -19 -162.5t-48 -111t-68.5 -65.5t-74.5 -33.5t-72 -8.5q-89 0 -149 49t-69 144h63
q6 -64 50.5 -100t108.5 -36q30 0 58.5 8t59 30.5t53 58t37 96t14.5 138.5q0 13 -2 25q-21 -48 -59.5 -80t-79.5 -44.5t-86 -12.5q-110 0 -173.5 71t-63.5 168q0 99 65.5 173t178.5 74z" />
    <glyph glyph-name="colon" unicode=":" horiz-adv-x="217" 
d="M70 91h87v-91h-87v91zM70 511h87v-91h-87v91z" />
    <glyph glyph-name="semicolon" unicode=";" horiz-adv-x="273" 
d="M213 91v-96q0 -140 -132 -159l-11 38q58 14 76 45.5t18 87.5h-43v84h92zM126 511h87v-91h-87v91z" />
    <glyph glyph-name="less" unicode="&#x3c;" horiz-adv-x="500" 
d="M54 254v55l364 218l25 -42l-338 -203l338 -202l-25 -43z" />
    <glyph glyph-name="equal" unicode="=" horiz-adv-x="500" 
d="M40 188v53h420v-53h-420zM40 342v53h420v-53h-420z" />
    <glyph glyph-name="greater" unicode="&#x3e;" horiz-adv-x="500" 
d="M52 80l338 202l-338 203l25 42l364 -218v-55l-364 -217z" />
    <glyph glyph-name="question" unicode="?" horiz-adv-x="563" 
d="M292 88v-88h-84v88h84zM294 762q94 0 151.5 -45.5t57.5 -131.5q0 -20 -4 -38t-8 -31.5t-15.5 -28.5t-17.5 -23.5t-23 -22t-23 -18t-26.5 -19t-24.5 -17.5q-53 -38 -70.5 -66.5t-17.5 -70.5v-57h-50v72q0 14 2 27t3.5 23t8 21t8.5 17t12.5 16.5t13 13.5t17 14.5t16.5 13
t20 14t20 13.5q50 35 74.5 66t24.5 78q0 66 -46.5 98.5t-110.5 32.5q-69 0 -117.5 -38t-52.5 -111h-56q0 98 67 148t167 50z" />
    <glyph glyph-name="at" unicode="@" horiz-adv-x="868" 
d="M382 98q67 0 109.5 64.5t42.5 143.5q0 59 -26.5 93.5t-78.5 34.5q-72 0 -114 -62t-42 -140q0 -64 30.5 -99t78.5 -35zM480 660q65 0 125 -18.5t112.5 -55.5t84 -103.5t31.5 -153.5q0 -115 -50 -198.5t-132 -83.5q-43 0 -76 24t-42 69q-27 -48 -70.5 -72t-89.5 -24
q-69 0 -112.5 52.5t-43.5 136.5q0 99 57 176t154 77q50 0 85.5 -22.5t48.5 -65.5l16 78h60l-40 -181q-17 -76 -17 -114q0 -84 71 -84q44 0 74.5 38t42.5 87t12 101q0 93 -44 161t-112 99.5t-151 31.5q-109 0 -198 -57t-136 -145.5t-47 -186.5q0 -140 93.5 -223t222.5 -83
q67 0 126 25l13 -43q-69 -31 -151 -31q-69 0 -132 22.5t-113.5 65t-81 111.5t-30.5 154q0 123 60.5 224t161 156.5t218.5 55.5z" />
    <glyph glyph-name="A" unicode="A" horiz-adv-x="763" 
d="M377 687l-163 -414h331zM194 220l-88 -220h-66l302 750h69l312 -750h-68l-89 220h-372z" />
    <glyph glyph-name="B" unicode="B" horiz-adv-x="666" 
d="M155 54h217q83 0 128.5 47.5t45.5 112.5q0 64 -44 110t-122 46h-225v-316zM155 423h194q80 0 124.5 43.5t44.5 101.5q0 53 -38.5 91t-106.5 38h-218v-274zM471 402q68 -23 104 -75.5t36 -114.5q0 -86 -62.5 -149.5t-171.5 -63.5h-2l-280 1v750h292q92 0 141 -52t49 -123
q0 -54 -27.5 -100.5t-78.5 -72.5z" />
    <glyph glyph-name="C" unicode="C" horiz-adv-x="779" 
d="M415 38q101 0 169.5 53.5t76.5 150.5h63q-9 -122 -97 -191.5t-216 -69.5q-113 0 -194 56t-119 145.5t-38 199.5q0 95 30 170.5t80 121.5t111.5 70t129.5 24q116 0 205.5 -63t100.5 -169h-63q-11 79 -82.5 127t-162.5 48q-117 0 -202 -84t-85 -243q0 -148 76.5 -247
t216.5 -99z" />
    <glyph glyph-name="D" unicode="D" horiz-adv-x="736" 
d="M155 54h147q75 0 136 28.5t98 76t57 105.5t20 121q0 129 -79 220.5t-222 91.5h-157v-643zM95 750h224q86 0 155.5 -30t112.5 -81t66 -115t23 -135q0 -73 -24 -141t-69 -124t-118.5 -90t-165.5 -34h-204v750z" />
    <glyph glyph-name="E" unicode="E" horiz-adv-x="623" 
d="M95 0v750h458v-53h-398v-291h370v-54h-370v-298h418v-54h-478z" />
    <glyph glyph-name="F" unicode="F" horiz-adv-x="573" 
d="M155 0h-60v750h458v-53h-398v-291h370v-54h-370v-352z" />
    <glyph glyph-name="G" unicode="G" horiz-adv-x="807" 
d="M717 371v-371h-55v122q-32 -64 -102 -102.5t-161 -38.5q-160 0 -249.5 115.5t-89.5 285.5q0 95 30 170.5t80 121.5t111.5 70t129.5 24q116 0 205.5 -63t100.5 -169h-63q-11 79 -82.5 127t-162.5 48q-118 0 -202.5 -84.5t-84.5 -244.5q0 -148 75 -247.5t210 -99.5
q117 0 186 77t68 205h-256v54h312z" />
    <glyph glyph-name="H" unicode="H" horiz-adv-x="736" 
d="M641 0h-60v351h-426v-351h-60v750h60v-345h426v345h60v-750z" />
    <glyph glyph-name="I" unicode="I" horiz-adv-x="260" 
d="M160 0h-60v750h60v-750z" />
    <glyph glyph-name="J" unicode="J" horiz-adv-x="523" 
d="M438 750v-547q0 -110 -55.5 -166t-145.5 -56t-148.5 53t-58.5 148v60h60v-55q0 -75 40.5 -114t106.5 -39t103.5 40.5t37.5 120.5v555h60z" />
    <glyph glyph-name="K" unicode="K" horiz-adv-x="675" 
d="M285 388l-130 -143v-245h-60v750h60v-425l385 425h77l-289 -316l322 -434h-75z" />
    <glyph glyph-name="L" unicode="L" horiz-adv-x="569" 
d="M534 0h-439v750h60v-696h379v-54z" />
    <glyph glyph-name="M" unicode="M" horiz-adv-x="890" 
d="M795 0h-59v687l-269 -687h-49l-265 685v-685h-58v750h96l253 -666l254 666h97v-750z" />
    <glyph glyph-name="N" unicode="N" horiz-adv-x="739" 
d="M644 0h-70l-421 680v-680h-58v750h85l406 -664v664h58v-750z" />
    <glyph glyph-name="O" unicode="O" horiz-adv-x="844" 
d="M423 714q-95 0 -165.5 -50t-103 -125t-32.5 -162q0 -64 19.5 -124t55.5 -109t95 -78.5t132 -29.5q95 0 164.5 49.5t101.5 125t32 163.5q0 65 -19 124.5t-55 108.5t-94 78t-131 29zM423 -19q-87 0 -158 33.5t-114.5 89.5t-67 125.5t-23.5 144.5t23.5 144.5t67.5 126
t114.5 90t158.5 33.5q87 0 157.5 -33.5t113.5 -89t66 -125t23 -144.5t-22.5 -144.5t-66 -126t-114 -90.5t-158.5 -34z" />
    <glyph glyph-name="P" unicode="P" horiz-adv-x="622" 
d="M155 374h193q82 0 127.5 47.5t45.5 115.5q0 67 -45 114.5t-126 47.5h-195v-325zM95 750h266q105 0 163 -61t58 -147q0 -90 -62 -154.5t-172 -64.5h-193v-323h-60v750z" />
    <glyph glyph-name="Q" unicode="Q" horiz-adv-x="844" 
d="M122 377q0 -64 19.5 -124t55.5 -109t95 -78.5t132 -29.5q65 0 119 24l-153 226h70l133 -197q63 45 96 121.5t33 163.5q0 65 -19 124.5t-55 108.5t-94 78t-131 29q-95 0 -165.5 -50t-103 -125t-32.5 -162zM784 376q0 -101 -40 -191t-117 -144l117 -174h-68l-99 146
q-70 -32 -154 -32q-87 0 -158 33.5t-114.5 89.5t-67 125.5t-23.5 144.5t23.5 144.5t67.5 126t114.5 90t158.5 33.5q87 0 157.5 -33.5t113.5 -89t66 -125t23 -144.5z" />
    <glyph glyph-name="R" unicode="R" horiz-adv-x="650" 
d="M155 382h192q80 0 125 47t45 114q0 65 -43 110.5t-121 45.5h-198v-317zM559 0l-218 331h-186v-331h-60v750h256q108 0 167.5 -59t59.5 -143q0 -73 -44.5 -132t-125.5 -78l222 -338h-71z" />
    <glyph glyph-name="S" unicode="S" horiz-adv-x="645" 
d="M590 189q0 -100 -70.5 -154t-179.5 -54q-126 0 -204 70t-81 181h64q6 -98 68.5 -147t152.5 -49q83 0 135.5 40t52.5 109q0 49 -34 82.5t-63.5 44.5t-96.5 29q-9 3 -13 4q-44 12 -72.5 21t-63.5 26.5t-55.5 38.5t-34.5 54t-14 74q0 96 66.5 152.5t177.5 56.5
q103 0 175 -50.5t77 -153.5h-64q-4 77 -59.5 114t-131.5 37q-80 0 -130 -41t-50 -115q0 -26 6 -47t22 -36.5t29.5 -26t43 -21t47.5 -16t56 -15.5q50 -13 78 -22t64.5 -26.5t55 -37t32.5 -51t14 -71.5z" />
    <glyph glyph-name="T" unicode="T" horiz-adv-x="616" 
d="M596 697h-258v-697h-60v697h-258v53h576v-53z" />
    <glyph glyph-name="U" unicode="U" horiz-adv-x="727" 
d="M642 750v-491q0 -132 -75 -204.5t-202 -72.5t-203.5 72.5t-76.5 204.5v491h60v-484q0 -113 60.5 -172t161.5 -59q98 0 157 55.5t59 162.5v497h59z" />
    <glyph glyph-name="V" unicode="V" horiz-adv-x="641" 
d="M357 0h-68l-259 750h64l228 -682l230 682h59z" />
    <glyph glyph-name="W" unicode="W" horiz-adv-x="977" 
d="M749 0h-66l-194 664l-195 -664h-66l-193 750h61l166 -672l194 672h68l193 -676l165 676h60z" />
    <glyph glyph-name="X" unicode="X" horiz-adv-x="683" 
d="M342 335l-228 -335h-74l264 387l-248 363h72l212 -313l212 313h73l-247 -362l265 -388h-72z" />
    <glyph glyph-name="Y" unicode="Y" horiz-adv-x="645" 
d="M30 750h71l223 -400l222 400h69l-261 -453v-297h-62v297z" />
    <glyph glyph-name="Z" unicode="Z" horiz-adv-x="664" 
d="M60 0v53l478 644h-465v53h535v-53l-478 -643h484v-54h-554z" />
    <glyph glyph-name="bracketleft" unicode="[" horiz-adv-x="331" 
d="M80 843h194v-40h-143v-925h143v-40h-194v1005z" />
    <glyph glyph-name="backslash" unicode="\" horiz-adv-x="448" 
d="M87 830l331 -922h-57l-331 922h57z" />
    <glyph glyph-name="bracketright" unicode="]" horiz-adv-x="331" 
d="M57 -162v40h143v925h-143v40h194v-1005h-194z" />
    <glyph glyph-name="asciicircum" unicode="^" horiz-adv-x="481" 
d="M240 694l-130 -227h-60l162 283h57l162 -283h-60z" />
    <glyph glyph-name="underscore" unicode="_" 
d="M50 -73v52h500v-52h-500z" />
    <glyph glyph-name="grave" unicode="`" horiz-adv-x="170" 
d="M53 820l117 -180h-48l-122 141z" />
    <glyph glyph-name="a" unicode="a" horiz-adv-x="554" 
d="M419 235v57q-25 -18 -98 -28l-86 -11q-126 -16 -126 -106q0 -51 34.5 -77.5t84.5 -26.5q74 0 132.5 51.5t58.5 140.5zM286 542q92 0 142.5 -43t50.5 -129v-370h-57v104q-29 -53 -84.5 -84.5t-117.5 -31.5q-72 0 -121 41.5t-49 114.5q0 67 43 105t116 48l134 19
q37 5 58 20t21 52q0 49 -39 77t-103 28t-103.5 -28.5t-47.5 -77.5h-57q13 75 69 115t145 40z" />
    <glyph glyph-name="b" unicode="b" horiz-adv-x="622" 
d="M327 37q76 0 131 57.5t55 168.5t-54.5 166.5t-131.5 55.5q-76 0 -131 -55.5t-55 -166.5q0 -112 55 -169t131 -57zM343 542q93 0 161 -70t68 -205q0 -137 -70 -208t-169 -71q-69 0 -120.5 33.5t-73.5 82.5v-104h-54v762h57v-346q20 53 76 89.5t125 36.5z" />
    <glyph glyph-name="c" unicode="c" horiz-adv-x="568" 
d="M298 43q68 0 112.5 36t51.5 103h56q-7 -90 -68.5 -142t-154.5 -52q-117 0 -181 80t-64 197q0 119 66 198t185 79q88 0 147.5 -46.5t68.5 -132.5h-56q-8 60 -51.5 93t-109.5 33q-92 0 -142 -62.5t-50 -158.5t49 -160.5t141 -64.5z" />
    <glyph glyph-name="d" unicode="d" horiz-adv-x="622" 
d="M296 41q76 0 130.5 57t54.5 169t-55 167t-131 55q-77 0 -131.5 -55.5t-54.5 -166.5t55 -168.5t132 -57.5zM537 0h-54v101q-22 -46 -75 -79.5t-121 -33.5q-97 0 -167 71.5t-70 208.5q0 136 70 205t167 69q65 0 117.5 -30t75.5 -74v324h57v-762z" />
    <glyph glyph-name="e" unicode="e" horiz-adv-x="571" 
d="M294 489q-73 0 -126 -48t-59 -136h354q-1 88 -49 136t-120 48zM521 253h-414q0 -103 55 -157.5t133 -54.5q59 0 108 30.5t61 89.5h53q-18 -87 -81.5 -130t-143.5 -43q-102 0 -172 70.5t-70 204.5q0 136 71.5 207.5t175.5 71.5q99 0 161.5 -65.5t62.5 -192.5v-31z" />
    <glyph glyph-name="f" unicode="f" horiz-adv-x="323" 
d="M303 710h-59q-43 0 -59.5 -18t-16.5 -59v-101h121v-52h-121v-480h-57v480h-91v52h91v99q0 76 32 103.5t87 27.5h73v-52z" />
    <glyph glyph-name="g" unicode="g" horiz-adv-x="614" 
d="M292 70q73 0 126 51.5t53 157.5q0 102 -50.5 157t-125.5 55q-76 0 -132 -54t-56 -156q0 -100 54 -155.5t131 -55.5zM534 532v-518q0 -111 -65 -171.5t-170 -60.5q-95 0 -159 49.5t-74 132.5h57q10 -60 53 -96t121 -36q82 0 132.5 43.5t50.5 135.5v120q-29 -59 -84.5 -86
t-115.5 -27q-99 0 -164.5 69.5t-65.5 192.5q0 128 70 195t172 67q128 0 185 -100v90h57z" />
    <glyph glyph-name="h" unicode="h" horiz-adv-x="593" 
d="M335 542q82 0 130 -43.5t48 -130.5v-368h-57v359q0 64 -35.5 97.5t-92.5 33.5q-76 0 -131 -54.5t-55 -149.5v-286h-57v762h57v-331q56 111 193 111z" />
    <glyph glyph-name="i" unicode="i" horiz-adv-x="227" 
d="M142 0h-57v532h57v-532zM147 750v-73h-67v73h67z" />
    <glyph glyph-name="j" unicode="j" horiz-adv-x="250" 
d="M170 532v-607q0 -76 -32 -103.5t-87 -27.5h-41v52h27q43 0 59.5 18t16.5 59v609h57zM175 677h-67v73h67v-73z" />
    <glyph glyph-name="k" unicode="k" horiz-adv-x="546" 
d="M244 273l-102 -106v-167h-57v762h57v-519l277 289h74l-210 -218l233 -314h-70z" />
    <glyph glyph-name="l" unicode="l" horiz-adv-x="227" 
d="M142 0h-57v762h57v-762z" />
    <glyph glyph-name="m" unicode="m" horiz-adv-x="889" 
d="M809 0h-57v364q0 63 -34 95.5t-85 32.5q-63 0 -110.5 -46t-47.5 -126v-320h-56v364q0 62 -33 95t-85 33q-63 0 -111 -46t-48 -126v-320h-57v532h56v-90q21 47 65 73.5t99 26.5q57 0 101 -28t58 -81q22 53 71 81t108 28q71 0 118.5 -40t47.5 -114v-388z" />
    <glyph glyph-name="n" unicode="n" horiz-adv-x="593" 
d="M337 542q81 0 128.5 -44t47.5 -130v-368h-57v359q0 64 -35.5 97.5t-92.5 33.5q-76 0 -131 -54.5t-55 -149.5v-286h-57v532h57v-105q58 115 195 115z" />
    <glyph glyph-name="o" unicode="o" horiz-adv-x="603" 
d="M303 43q82 0 136.5 59.5t54.5 161.5v7q-2 101 -57 158.5t-137 57.5q-84 0 -137.5 -59.5t-53.5 -157.5v-7q1 -100 56.5 -160t137.5 -60zM300 542q112 0 182.5 -75t70.5 -203q0 -127 -69.5 -201.5t-181.5 -74.5t-182 74.5t-70 202.5q0 127 69.5 202t180.5 75z" />
    <glyph glyph-name="p" unicode="p" horiz-adv-x="621" 
d="M327 44q76 0 130.5 56t54.5 165t-54 164.5t-130 55.5t-131.5 -55.5t-55.5 -164.5q0 -110 55 -165.5t131 -55.5zM342 542q94 0 161.5 -69.5t67.5 -204.5q0 -136 -69.5 -204.5t-172.5 -68.5q-129 0 -187 99v-300h-57v738h56v-117q19 54 75.5 90.5t125.5 36.5z" />
    <glyph glyph-name="q" unicode="q" horiz-adv-x="616" 
d="M295 46q76 0 130.5 55.5t54.5 166.5t-55 166t-131 55q-77 0 -131 -55.5t-54 -165.5t54.5 -166t131.5 -56zM479 -206v307q-24 -47 -76.5 -76.5t-116.5 -29.5q-97 0 -166.5 69.5t-69.5 205.5q0 135 68.5 203.5t166.5 68.5q65 0 119 -29t76 -73v92h56v-738h-57z" />
    <glyph glyph-name="r" unicode="r" horiz-adv-x="360" 
d="M340 485h-8q-92 0 -141 -50.5t-49 -146.5v-288h-57v532h56v-104q15 54 63.5 82t116.5 28h19v-53z" />
    <glyph glyph-name="s" unicode="s" horiz-adv-x="513" 
d="M267 291q40 -7 62.5 -12t53 -16t46.5 -25t27.5 -37.5t11.5 -55.5q0 -77 -56.5 -117t-139.5 -40q-89 0 -154 45.5t-73 127.5h62q10 -62 54.5 -91t105.5 -29q59 0 100.5 25t41.5 72q0 25 -11.5 42.5t-35.5 28t-43.5 16t-54.5 11.5q-41 7 -65 13t-54.5 17.5t-47.5 26
t-28.5 38.5t-11.5 56q0 76 56 115.5t140 39.5q85 0 139 -40.5t62 -111.5h-60q-7 50 -47 75t-99 25q-63 0 -97 -27.5t-34 -72.5q0 -21 8.5 -36.5t19 -25t33.5 -17t39.5 -11t49.5 -9.5z" />
    <glyph glyph-name="t" unicode="t" horiz-adv-x="348" 
d="M318 0h-81q-55 0 -87 27.5t-32 103.5v349h-108v52h108v159l57 16v-175h132v-52h-132v-351q0 -41 16.5 -59t59.5 -18h67v-52z" />
    <glyph glyph-name="u" unicode="u" horiz-adv-x="587" 
d="M438 0v109q-55 -115 -183 -115q-78 0 -126.5 46t-48.5 135v357h57v-354q0 -65 34 -100t91 -35q73 0 123 54t50 152v283h57v-532h-54z" />
    <glyph glyph-name="v" unicode="v" horiz-adv-x="498" 
d="M282 0h-67l-195 532h62l168 -480l168 481h60z" />
    <glyph glyph-name="w" unicode="w" horiz-adv-x="799" 
d="M603 0h-62l-142 444l-142 -444h-62l-170 532h57l146 -461l141 461h59l146 -461l141 461h59z" />
    <glyph glyph-name="x" unicode="x" horiz-adv-x="537" 
d="M30 0l207 277l-191 255h70l155 -216l157 216h67l-191 -260l203 -272h-71l-168 233l-169 -233h-69z" />
    <glyph glyph-name="y" unicode="y" horiz-adv-x="485" 
d="M465 532l-243 -640q-26 -68 -113 -68h-49v52h50q29 0 47 16.5t30 49.5l30 82l-197 508h60l164 -441l165 441h56z" />
    <glyph glyph-name="z" unicode="z" horiz-adv-x="530" 
d="M118 52h350v-52h-418v52l347 428h-339v52h412v-52z" />
    <glyph glyph-name="braceleft" unicode="{" horiz-adv-x="336" 
d="M170 749v-318q0 -80 -80 -100q38 -11 59 -33t21 -68v-318q0 -46 17 -61t60 -15h49v-42h-71q-19 0 -34 3t-33.5 13t-29 34.5t-10.5 61.5v304q0 49 -18 68t-70 30v45q52 11 70 30t18 68v304q0 37 10.5 61.5t29 34.5t33.5 13t34 3h71v-42h-49q-43 0 -60 -15t-17 -61z" />
    <glyph glyph-name="bar" unicode="|" horiz-adv-x="219" 
d="M139 -120h-59v990h59v-990z" />
    <glyph glyph-name="braceright" unicode="}" horiz-adv-x="336" 
d="M156 431v318q0 46 -17 61t-60 15h-49v42h71q19 0 34 -3t33.5 -13t29 -34.5t10.5 -61.5v-304q0 -49 18 -68t70 -30v-45q-52 -11 -70 -30t-18 -68v-304q0 -37 -10.5 -61.5t-29 -34.5t-33.5 -13t-34 -3h-71v42h49q43 0 60 15t17 61v318q0 46 21 68t59 33q-80 20 -80 100z
" />
    <glyph glyph-name="asciitilde" unicode="~" horiz-adv-x="545" 
d="M438 433h47q-2 -71 -34 -108.5t-78 -37.5q-37 0 -103 39t-95 39q-53 0 -70 -73h-45q6 60 36.5 95.5t73.5 35.5q35 0 102.5 -40t96.5 -40q63 0 69 90z" />
    <glyph glyph-name="exclamdown" unicode="&#xa1;" horiz-adv-x="264" 
d="M98 -233v348l12 190h42l12 -190v-348h-66zM174 517v-88h-84v88h84z" />
    <glyph glyph-name="cent" unicode="&#xa2;" horiz-adv-x="640" 
d="M154 268q0 -93 37 -147.5t97 -70.5l30 439q-72 -8 -118 -64t-46 -157zM496 182h56q-6 -90 -66 -142t-151 -52h-7l-8 -114h-44l8 119q-84 16 -136 85t-52 188q0 128 62.5 199t162.5 77l7 101h44l-7 -102q76 -7 127 -53t59 -125h-56q-7 56 -43 88.5t-90 37.5l-31 -446h8
q64 0 107 36.5t50 102.5z" />
    <glyph glyph-name="sterling" unicode="&#xa3;" horiz-adv-x="640" 
d="M146 38q27 0 52.5 17t35.5 50q-39 42 -87 42q-26 0 -40.5 -16t-14.5 -39q0 -22 14 -38t40 -16zM542 167h57q-1 -92 -40 -135.5t-107 -43.5q-33 0 -66 12.5t-52.5 25t-59.5 42.5q-15 -23 -27.5 -37.5t-38.5 -28.5t-58 -14q-52 0 -80 30t-28 72q0 43 28.5 75t76.5 32
q47 0 104 -43q13 61 13 165v81h-113v50h113v137q0 79 45 121t108 42q60 0 102.5 -37t42.5 -102h-57q0 42 -25 64.5t-63 22.5q-40 0 -68 -27t-28 -79v-142h169v-50h-169v-62q0 -97 -4.5 -145.5t-20.5 -79.5q93 -75 154 -75q92 0 92 129z" />
    <glyph glyph-name="currency" unicode="&#xa4;" horiz-adv-x="640" 
d="M166 302q0 -65 44.5 -110t109.5 -45t109.5 45t44.5 110q0 64 -45 109t-109 45t-109 -45t-45 -109zM527 302q0 -82 -53 -140l101 -126l-47 -36l-100 124q-50 -29 -108 -29t-107 30l-101 -125l-47 36l102 127q-53 58 -53 139q0 83 56 142l-105 130l47 36l104 -129
q49 27 104 27q56 0 104 -27l104 129l47 -36l-105 -129q57 -59 57 -143z" />
    <glyph glyph-name="yen" unicode="&#xa5;" horiz-adv-x="640" 
d="M351 351h184v-45h-184v-95h184v-45h-184v-166h-62v166h-183v45h183v95h-183v45h183v33l-211 366h70l176 -319l177 319h62l-212 -366v-33z" />
    <glyph glyph-name="brokenbar" unicode="&#xa6;" horiz-adv-x="219" 
d="M139 -120h-59v417h59v-417zM139 453h-59v417h59v-417z" />
    <glyph glyph-name="section" unicode="&#xa7;" horiz-adv-x="540" 
d="M128 372q0 -32 20 -54t51.5 -30.5t52.5 -11t41 -2.5q68 0 106 26t38 70q0 32 -21.5 53.5t-55 30t-55.5 11t-42 2.5q-63 0 -99 -25t-36 -70zM382 250q102 -34 102 -120q0 -72 -60 -113t-147 -41q-91 0 -156 44t-71 125h59q8 -63 59 -93.5t115 -30.5q60 0 102 26.5t42 76.5
q0 25 -12 43.5t-36 29t-44.5 16t-53.5 11.5q-39 7 -59.5 11t-53 15t-49 24.5t-30 38t-13.5 56.5q0 96 97 122q-37 10 -63.5 41.5t-26.5 79.5q0 71 58 110.5t141 39.5q84 0 145 -40t60 -110h-59q-1 52 -44.5 78t-105.5 26q-65 0 -102 -27.5t-37 -76.5q0 -27 12 -45.5
t39.5 -28.5t45 -13.5t55.5 -8.5q5 -1 7 -1q43 -6 73.5 -13.5t59.5 -22t44 -39.5t15 -60q0 -51 -29.5 -84t-78.5 -46z" />
    <glyph glyph-name="dieresis" unicode="&#xa8;" horiz-adv-x="266" 
d="M266 721v-81h-79v81h79zM79 721v-81h-79v81h79z" />
    <glyph glyph-name="copyright" unicode="&#xa9;" horiz-adv-x="889" 
d="M450 196q53 0 88 33.5t35 89.5h56q0 -81 -52.5 -127.5t-129.5 -46.5q-83 0 -140.5 59.5t-57.5 173.5q0 116 58.5 174.5t139.5 58.5q75 0 126.5 -45t51.5 -122h-56q0 52 -34.5 84t-85.5 32q-59 0 -102 -46t-43 -134q0 -87 42.5 -135.5t103.5 -48.5zM445 33q142 0 238 96
t96 246t-96 246t-238 96t-238.5 -96t-96.5 -246q0 -151 96.5 -246.5t238.5 -95.5zM445 762q164 0 274 -109t110 -278t-110 -278t-274 -109t-274.5 109t-110.5 278t110.5 278t274.5 109z" />
    <glyph glyph-name="ordfeminine" unicode="&#xaa;" horiz-adv-x="427" 
d="M187 376q55 0 98.5 38.5t43.5 104.5v39q-19 -10 -70 -19l-66 -9q-45 -7 -69.5 -24t-24.5 -53q0 -38 25.5 -57.5t62.5 -19.5zM232 753q69 0 107 -33t38 -99v-280h-48v72q-24 -37 -64.5 -59t-82.5 -22q-56 0 -94 31.5t-38 87.5q0 101 122 118l100 15q27 4 42 14.5t15 35.5
q0 37 -28 57t-74 20q-50 0 -80.5 -23t-32.5 -60h-49q4 58 49.5 91.5t117.5 33.5z" />
    <glyph glyph-name="guillemotleft" unicode="&#xab;" horiz-adv-x="499" 
d="M449 140l-41 -38l-178 202l178 202l41 -38l-145 -164zM249 140l-41 -38l-178 202l178 202l41 -38l-145 -164z" />
    <glyph glyph-name="logicalnot" unicode="&#xac;" horiz-adv-x="500" 
d="M405 112v156h-365v53h420v-209h-55z" />
    <glyph glyph-name="registered" unicode="&#xae;" horiz-adv-x="539" 
d="M232 536h53q20 0 31 11t11 28q0 18 -11 29t-31 11h-53v-79zM371 575q0 -54 -48 -73l55 -87h-50l-52 80h-44v-80h-44v242h95q43 0 65.5 -24t22.5 -58zM270 331q83 0 139 56t56 144q0 87 -56 143.5t-139 56.5t-139.5 -56.5t-56.5 -143.5q0 -88 56.5 -144t139.5 -56z
M270 762q98 0 163.5 -65t65.5 -166t-65.5 -166t-163.5 -65t-164 65t-66 166t66 166t164 65z" />
    <glyph glyph-name="macron" unicode="&#xaf;" horiz-adv-x="319" 
d="M0 640v47h319v-47h-319z" />
    <glyph glyph-name="degree" unicode="&#xb0;" horiz-adv-x="431" 
d="M334 632q0 55 -34 89.5t-85 34.5t-84.5 -34.5t-33.5 -89.5q0 -56 33.5 -91t84.5 -35t85 35t34 91zM40 631q0 77 50 126t123 49q77 0 127.5 -48.5t50.5 -126.5q0 -76 -51 -126t-127 -50q-73 0 -123 50t-50 126z" />
    <glyph glyph-name="plusminus" unicode="&#xb1;" horiz-adv-x="500" 
d="M40 187h420v-53h-420v53zM460 512v-53h-182v-193h-55v193h-183v53h183v193h55v-193h182z" />
    <glyph glyph-name="acute" unicode="&#xb4;" horiz-adv-x="170" 
d="M48 640h-48l117 180l53 -39z" />
    <glyph glyph-name="paragraph" unicode="&#xb6;" horiz-adv-x="626" 
d="M378 700h-109q-81 0 -125 -47.5t-44 -115.5t44.5 -116t126.5 -48h107v327zM546 -140h-53v890h53v-890zM40 542q0 89 56 148.5t164 59.5h171v-890h-53v463h-107q-112 0 -171.5 63.5t-59.5 155.5z" />
    <glyph glyph-name="periodcentered" unicode="&#xb7;" horiz-adv-x="216" 
d="M50 414h116v-120h-116v120z" />
    <glyph glyph-name="cedilla" unicode="&#xb8;" horiz-adv-x="200" 
d="M102 6v-69h5q43 0 68 -21t25 -53t-25 -56.5t-72 -24.5q-57 0 -103 40l23 34q40 -37 81 -37q55 0 55 42q0 53 -103 53l15 92h31z" />
    <glyph glyph-name="ordmasculine" unicode="&#xba;" horiz-adv-x="489" 
d="M246 380q64 0 104 42.5t40 117.5q0 76 -41.5 118t-105.5 42t-104 -41t-40 -115q0 -77 42 -120.5t105 -43.5zM243 750q87 0 141.5 -56.5t54.5 -153.5t-54 -153t-140 -56q-87 0 -141 56t-54 153t53.5 153.5t139.5 56.5z" />
    <glyph glyph-name="guillemotright" unicode="&#xbb;" horiz-adv-x="499" 
d="M250 468l41 38l178 -202l-178 -202l-41 38l145 164zM50 468l41 38l178 -202l-178 -202l-41 38l145 164z" />
    <glyph glyph-name="onequarter" unicode="&#xbc;" horiz-adv-x="1000" 
d="M786 385l-160 -235h160v235zM906 105h-75v-103h-45v104h-214v46l196 291h63v-293h75v-45zM347 295h-247v46h101v329q-46 -31 -107 -37v45q67 11 114 58h39v-395h100v-46zM321 0h-52l478 750h52z" />
    <glyph glyph-name="onehalf" unicode="&#xbd;" horiz-adv-x="1000" 
d="M926 2h-308v45l113 102q8 7 25 22.5t24 22t20 19t18.5 18.5t14.5 17t12.5 18.5t8 17.5t6 19.5t1.5 19.5q0 42 -25.5 64.5t-66.5 22.5q-44 0 -74 -26.5t-31 -79.5h-50q2 72 48 112t109 40q58 0 99 -34.5t41 -94.5q0 -50 -29.5 -89.5t-100.5 -102.5l-95 -87h240v-46z
M328 295h-247v46h101v329q-46 -31 -107 -37v45q67 11 114 58h39v-395h100v-46zM302 0h-52l478 750h52z" />
    <glyph glyph-name="threequarters" unicode="&#xbe;" horiz-adv-x="1000" 
d="M815 383l-160 -235h160v235zM935 103h-75v-103h-45v104h-214v46l196 291h63v-293h75v-45zM319 0h-52l478 750h52zM300 528q38 -15 58.5 -45t20.5 -67q0 -53 -41 -90.5t-112 -37.5q-70 0 -115 39t-45 105v8h51q0 -2 -0.5 -5.5t-0.5 -5.5q0 -45 30.5 -70.5t79.5 -25.5
q48 0 74.5 22.5t26.5 57.5q0 38 -31 63.5t-88 25.5h-17v42h15q53 0 82.5 25.5t29.5 62.5q0 36 -27 54t-68 18q-44 0 -72.5 -25t-28.5 -74v-7h-48v8q0 68 44 106t109 38q63 0 103 -31.5t40 -84.5q0 -35 -19 -63t-51 -43z" />
    <glyph glyph-name="questiondown" unicode="&#xbf;" horiz-adv-x="533" 
d="M259 -245q-94 0 -151.5 45.5t-57.5 131.5q0 20 4 38t8 31.5t15.5 28.5t17.5 23.5t23 22t23 18t26.5 19t24.5 17.5q53 38 70.5 66.5t17.5 70.5v57h50v-72q0 -14 -2 -27t-3.5 -23t-8 -21t-8.5 -17t-12.5 -16.5t-13 -13.5t-17 -14.5t-16.5 -13t-20 -14t-20 -13.5
q-50 -35 -74.5 -66t-24.5 -78q0 -66 46.5 -98.5t110.5 -32.5q69 0 117.5 38t52.5 111h56q0 -98 -67 -148t-167 -50zM261 429v88h84v-88h-84z" />
    <glyph glyph-name="Agrave" unicode="&#xc0;" horiz-adv-x="763" 
d="M377 687l-163 -414h331zM194 220l-88 -220h-66l302 750h69l312 -750h-68l-89 220h-372zM289 1012l117 -180h-48l-122 141z" />
    <glyph glyph-name="Aacute" unicode="&#xc1;" horiz-adv-x="763" 
d="M377 687l-163 -414h331zM194 220l-88 -220h-66l302 750h69l312 -750h-68l-89 220h-372zM405 832h-48l117 180l53 -39z" />
    <glyph glyph-name="Acircumflex" unicode="&#xc2;" horiz-adv-x="763" 
d="M377 687l-163 -414h331zM194 220l-88 -220h-66l302 750h69l312 -750h-68l-89 220h-372zM381 938l-84 -106h-64l129 163h39l129 -163h-64z" />
    <glyph glyph-name="Atilde" unicode="&#xc3;" horiz-adv-x="763" 
d="M377 687l-163 -414h331zM194 220l-88 -220h-66l302 750h69l312 -750h-68l-89 220h-372zM501 958h38q0 -60 -25.5 -95t-62.5 -35q-28 0 -72 35.5t-59 35.5q-39 0 -52 -67h-44q6 59 31.5 92.5t61.5 33.5q29 0 73 -36.5t61 -36.5q41 0 50 73z" />
    <glyph glyph-name="Adieresis" unicode="&#xc4;" horiz-adv-x="763" 
d="M377 687l-163 -414h331zM194 220l-88 -220h-66l302 750h69l312 -750h-68l-89 220h-372zM518 917v-85h-83v85h83zM329 917v-85h-83v85h83z" />
    <glyph glyph-name="Aring" unicode="&#xc5;" horiz-adv-x="763" 
d="M377 687l-163 -414h331zM194 220l-88 -220h-66l302 750h69l312 -750h-68l-89 220h-372zM439 924q0 24 -16.5 41t-39.5 17t-39 -17t-16 -41q0 -25 16 -42.5t39 -17.5t39.5 17.5t16.5 42.5zM287 924q0 42 28 69t68 27q41 0 69 -27t28 -69t-28 -69.5t-69 -27.5t-68.5 27.5
t-27.5 69.5z" />
    <glyph glyph-name="AE" unicode="&#xc6;" horiz-adv-x="1062" 
d="M534 289v409h-56l-217 -409h273zM1012 54v-54h-478v236h-301l-126 -236h-67l402 750h550v-53h-398v-291h370v-54h-370v-298h418z" />
    <glyph glyph-name="Ccedilla" unicode="&#xc7;" horiz-adv-x="779" 
d="M410 -19v-44h5q43 0 68 -21t25 -53t-25 -56.5t-72 -24.5q-57 0 -103 40l23 34q40 -37 81 -37q55 0 55 42q0 53 -103 53l11 69q-151 13 -233 125.5t-82 273.5q0 95 30 170.5t80 121.5t111.5 70t129.5 24q116 0 205.5 -63t100.5 -169h-63q-11 79 -82.5 127t-162.5 48
q-117 0 -202 -84t-85 -243q0 -148 76.5 -247t216.5 -99q101 0 169.5 53.5t76.5 150.5h63q-9 -122 -97 -191.5t-217 -69.5z" />
    <glyph glyph-name="Egrave" unicode="&#xc8;" horiz-adv-x="623" 
d="M95 0v750h458v-53h-398v-291h370v-54h-370v-298h418v-54h-478zM237 1012l117 -180h-48l-122 141z" />
    <glyph glyph-name="Eacute" unicode="&#xc9;" horiz-adv-x="623" 
d="M95 0v750h458v-53h-398v-291h370v-54h-370v-298h418v-54h-478zM339 832h-48l117 180l53 -39z" />
    <glyph glyph-name="Ecircumflex" unicode="&#xca;" horiz-adv-x="623" 
d="M95 0v750h458v-53h-398v-291h370v-54h-370v-298h418v-54h-478zM326 938l-84 -106h-64l129 163h39l129 -163h-64z" />
    <glyph glyph-name="Edieresis" unicode="&#xcb;" horiz-adv-x="623" 
d="M95 0v750h458v-53h-398v-291h370v-54h-370v-298h418v-54h-478zM468 917v-85h-83v85h83zM279 917v-85h-83v85h83z" />
    <glyph glyph-name="Igrave" unicode="&#xcc;" horiz-adv-x="260" 
d="M160 0h-60v750h60v-750zM31 1012l117 -180h-48l-122 141z" />
    <glyph glyph-name="Iacute" unicode="&#xcd;" horiz-adv-x="260" 
d="M160 0h-60v750h60v-750zM159 832h-48l117 180l53 -39z" />
    <glyph glyph-name="Icircumflex" unicode="&#xce;" horiz-adv-x="260" 
d="M158 0h-60v750h60v-750zM128 938l-84 -106h-64l129 163h39l129 -163h-64z" />
    <glyph glyph-name="Idieresis" unicode="&#xcf;" horiz-adv-x="472" 
d="M266 0h-60v750h60v-750zM372 917v-85h-83v85h83zM183 917v-85h-83v85h83z" />
    <glyph glyph-name="Eth" unicode="&#xd0;" horiz-adv-x="736" 
d="M155 54h147q75 0 136 28.5t98 76t57 105.5t20 121q0 129 -79 220.5t-222 91.5h-157v-287h214v-57h-214v-299zM95 750h224q86 0 155.5 -30t112.5 -81t66 -115t23 -135q0 -73 -24 -141t-69 -124t-118.5 -90t-165.5 -34h-204v353h-105v57h105v340z" />
    <glyph glyph-name="Ntilde" unicode="&#xd1;" horiz-adv-x="739" 
d="M644 0h-70l-421 680v-680h-58v750h85l406 -664v664h58v-750zM509 958h38q0 -60 -25.5 -95t-62.5 -35q-28 0 -72 35.5t-59 35.5q-39 0 -52 -67h-44q6 59 31.5 92.5t61.5 33.5q29 0 73 -36.5t61 -36.5q41 0 50 73z" />
    <glyph glyph-name="Ograve" unicode="&#xd2;" horiz-adv-x="844" 
d="M423 714q-95 0 -165.5 -50t-103 -125t-32.5 -162q0 -64 19.5 -124t55.5 -109t95 -78.5t132 -29.5q95 0 164.5 49.5t101.5 125t32 163.5q0 65 -19 124.5t-55 108.5t-94 78t-131 29zM423 -19q-87 0 -158 33.5t-114.5 89.5t-67 125.5t-23.5 144.5t23.5 144.5t67.5 126
t114.5 90t158.5 33.5q87 0 157.5 -33.5t113.5 -89t66 -125t23 -144.5t-22.5 -144.5t-66 -126t-114 -90.5t-158.5 -34zM350 1012l117 -180h-48l-122 141z" />
    <glyph glyph-name="Oacute" unicode="&#xd3;" horiz-adv-x="844" 
d="M423 714q-95 0 -165.5 -50t-103 -125t-32.5 -162q0 -64 19.5 -124t55.5 -109t95 -78.5t132 -29.5q95 0 164.5 49.5t101.5 125t32 163.5q0 65 -19 124.5t-55 108.5t-94 78t-131 29zM423 -19q-87 0 -158 33.5t-114.5 89.5t-67 125.5t-23.5 144.5t23.5 144.5t67.5 126
t114.5 90t158.5 33.5q87 0 157.5 -33.5t113.5 -89t66 -125t23 -144.5t-22.5 -144.5t-66 -126t-114 -90.5t-158.5 -34zM459 832h-48l117 180l53 -39z" />
    <glyph glyph-name="Ocircumflex" unicode="&#xd4;" horiz-adv-x="844" 
d="M423 714q-95 0 -165.5 -50t-103 -125t-32.5 -162q0 -64 19.5 -124t55.5 -109t95 -78.5t132 -29.5q95 0 164.5 49.5t101.5 125t32 163.5q0 65 -19 124.5t-55 108.5t-94 78t-131 29zM423 -19q-87 0 -158 33.5t-114.5 89.5t-67 125.5t-23.5 144.5t23.5 144.5t67.5 126
t114.5 90t158.5 33.5q87 0 157.5 -33.5t113.5 -89t66 -125t23 -144.5t-22.5 -144.5t-66 -126t-114 -90.5t-158.5 -34zM422 938l-84 -106h-64l129 163h39l129 -163h-64z" />
    <glyph glyph-name="Otilde" unicode="&#xd5;" horiz-adv-x="844" 
d="M423 714q-95 0 -165.5 -50t-103 -125t-32.5 -162q0 -64 19.5 -124t55.5 -109t95 -78.5t132 -29.5q95 0 164.5 49.5t101.5 125t32 163.5q0 65 -19 124.5t-55 108.5t-94 78t-131 29zM423 -19q-87 0 -158 33.5t-114.5 89.5t-67 125.5t-23.5 144.5t23.5 144.5t67.5 126
t114.5 90t158.5 33.5q87 0 157.5 -33.5t113.5 -89t66 -125t23 -144.5t-22.5 -144.5t-66 -126t-114 -90.5t-158.5 -34zM551 958h38q0 -60 -25.5 -95t-62.5 -35q-28 0 -72 35.5t-59 35.5q-39 0 -52 -67h-44q6 59 31.5 92.5t61.5 33.5q29 0 73 -36.5t61 -36.5q41 0 50 73z" />
    <glyph glyph-name="Odieresis" unicode="&#xd6;" horiz-adv-x="844" 
d="M423 714q-95 0 -165.5 -50t-103 -125t-32.5 -162q0 -64 19.5 -124t55.5 -109t95 -78.5t132 -29.5q95 0 164.5 49.5t101.5 125t32 163.5q0 65 -19 124.5t-55 108.5t-94 78t-131 29zM423 -19q-87 0 -158 33.5t-114.5 89.5t-67 125.5t-23.5 144.5t23.5 144.5t67.5 126
t114.5 90t158.5 33.5q87 0 157.5 -33.5t113.5 -89t66 -125t23 -144.5t-22.5 -144.5t-66 -126t-114 -90.5t-158.5 -34zM558 917v-85h-83v85h83zM369 917v-85h-83v85h83z" />
    <glyph glyph-name="multiply" unicode="&#xd7;" horiz-adv-x="500" 
d="M287 299l157 -158l-36 -37l-158 158l-158 -158l-36 37l158 158l-164 163l36 37l164 -164l164 164l36 -37z" />
    <glyph glyph-name="Oslash" unicode="&#xd8;" horiz-adv-x="844" 
d="M424 36q95 0 164.5 49.5t101.5 125t32 163.5q0 98 -42 182.5t-120 125.5l-230 -632q44 -14 94 -14zM122 377q0 -96 42 -180.5t120 -126.5l230 631q-45 13 -91 13q-95 0 -165.5 -50t-103 -125t-32.5 -162zM620 848l-41 -112q99 -46 152 -144.5t53 -215.5
q0 -75 -22.5 -144.5t-66 -126t-114 -90.5t-158.5 -34q-58 0 -112 16l-34 -93h-53l40 111q-98 46 -151 144.5t-53 214.5q0 75 23.5 144.5t67.5 126t114.5 90t158.5 33.5q60 0 109 -15l34 95h53z" />
    <glyph glyph-name="Ugrave" unicode="&#xd9;" horiz-adv-x="727" 
d="M642 750v-491q0 -132 -75 -204.5t-202 -72.5t-203.5 72.5t-76.5 204.5v491h60v-484q0 -113 60.5 -172t161.5 -59q98 0 157 55.5t59 162.5v497h59zM292 1012l117 -180h-48l-122 141z" />
    <glyph glyph-name="Uacute" unicode="&#xda;" horiz-adv-x="727" 
d="M642 750v-491q0 -132 -75 -204.5t-202 -72.5t-203.5 72.5t-76.5 204.5v491h60v-484q0 -113 60.5 -172t161.5 -59q98 0 157 55.5t59 162.5v497h59zM377 832h-48l117 180l53 -39z" />
    <glyph glyph-name="Ucircumflex" unicode="&#xdb;" horiz-adv-x="727" 
d="M642 750v-491q0 -132 -75 -204.5t-202 -72.5t-203.5 72.5t-76.5 204.5v491h60v-484q0 -113 60.5 -172t161.5 -59q98 0 157 55.5t59 162.5v497h59zM363 938l-84 -106h-64l129 163h39l129 -163h-64z" />
    <glyph glyph-name="Udieresis" unicode="&#xdc;" horiz-adv-x="727" 
d="M642 750v-491q0 -132 -75 -204.5t-202 -72.5t-203.5 72.5t-76.5 204.5v491h60v-484q0 -113 60.5 -172t161.5 -59q98 0 157 55.5t59 162.5v497h59zM500 917v-85h-83v85h83zM311 917v-85h-83v85h83z" />
    <glyph glyph-name="Yacute" unicode="&#xdd;" horiz-adv-x="645" 
d="M30 750h71l223 -400l222 400h69l-261 -453v-297h-62v297zM356 832h-48l117 180l53 -39z" />
    <glyph glyph-name="Thorn" unicode="&#xde;" horiz-adv-x="622" 
d="M155 220h193q82 0 127.5 47.5t45.5 115.5q0 67 -45 114.5t-126 47.5h-195v-325zM155 596h206q105 0 163 -61t58 -147q0 -90 -62 -154.5t-172 -64.5h-193v-169h-60v750h60v-154z" />
    <glyph glyph-name="germandbls" unicode="&#xdf;" horiz-adv-x="613" 
d="M364 393q91 -14 145 -63.5t54 -132.5q0 -93 -65.5 -145t-172.5 -52h-68v51h77q71 0 121 37t50 105q0 72 -61 118t-181 46h-7v56q95 8 145.5 51.5t50.5 108.5q0 61 -43.5 96.5t-110.5 35.5q-72 0 -116.5 -41.5t-44.5 -117.5v-546h-57v546q0 104 61 160t155 56
q91 0 152 -51t61 -139q0 -71 -40 -115t-105 -64z" />
    <glyph glyph-name="agrave" unicode="&#xe0;" horiz-adv-x="554" 
d="M419 235v57q-25 -18 -98 -28l-86 -11q-126 -16 -126 -106q0 -51 34.5 -77.5t84.5 -26.5q74 0 132.5 51.5t58.5 140.5zM286 542q92 0 142.5 -43t50.5 -129v-370h-57v104q-29 -53 -84.5 -84.5t-117.5 -31.5q-72 0 -121 41.5t-49 114.5q0 67 43 105t116 48l134 19
q37 5 58 20t21 52q0 49 -39 77t-103 28t-103.5 -28.5t-47.5 -77.5h-57q13 75 69 115t145 40zM211 820l117 -180h-48l-122 141z" />
    <glyph glyph-name="aacute" unicode="&#xe1;" horiz-adv-x="554" 
d="M419 235v57q-25 -18 -98 -28l-86 -11q-126 -16 -126 -106q0 -51 34.5 -77.5t84.5 -26.5q74 0 132.5 51.5t58.5 140.5zM286 542q92 0 142.5 -43t50.5 -129v-370h-57v104q-29 -53 -84.5 -84.5t-117.5 -31.5q-72 0 -121 41.5t-49 114.5q0 67 43 105t116 48l134 19
q37 5 58 20t21 52q0 49 -39 77t-103 28t-103.5 -28.5t-47.5 -77.5h-57q13 75 69 115t145 40zM305 640h-48l117 180l53 -39z" />
    <glyph glyph-name="acircumflex" unicode="&#xe2;" horiz-adv-x="554" 
d="M419 235v57q-25 -18 -98 -28l-86 -11q-126 -16 -126 -106q0 -51 34.5 -77.5t84.5 -26.5q74 0 132.5 51.5t58.5 140.5zM286 542q92 0 142.5 -43t50.5 -129v-370h-57v104q-29 -53 -84.5 -84.5t-117.5 -31.5q-72 0 -121 41.5t-49 114.5q0 67 43 105t116 48l134 19
q37 5 58 20t21 52q0 49 -39 77t-103 28t-103.5 -28.5t-47.5 -77.5h-57q13 75 69 115t145 40zM282 746l-84 -106h-64l129 163h39l129 -163h-64z" />
    <glyph glyph-name="atilde" unicode="&#xe3;" horiz-adv-x="554" 
d="M419 235v57q-25 -18 -98 -28l-86 -11q-126 -16 -126 -106q0 -51 34.5 -77.5t84.5 -26.5q74 0 132.5 51.5t58.5 140.5zM286 542q92 0 142.5 -43t50.5 -129v-370h-57v104q-29 -53 -84.5 -84.5t-117.5 -31.5q-72 0 -121 41.5t-49 114.5q0 67 43 105t116 48l134 19
q37 5 58 20t21 52q0 49 -39 77t-103 28t-103.5 -28.5t-47.5 -77.5h-57q13 75 69 115t145 40zM399 766h38q0 -60 -25.5 -95t-62.5 -35q-28 0 -72 35.5t-59 35.5q-39 0 -52 -67h-44q6 59 31.5 92.5t61.5 33.5q23 0 48.5 -18t48 -36.5t37.5 -18.5q41 0 50 73z" />
    <glyph glyph-name="adieresis" unicode="&#xe4;" horiz-adv-x="554" 
d="M419 235v57q-25 -18 -98 -28l-86 -11q-126 -16 -126 -106q0 -51 34.5 -77.5t84.5 -26.5q74 0 132.5 51.5t58.5 140.5zM286 542q92 0 142.5 -43t50.5 -129v-370h-57v104q-29 -53 -84.5 -84.5t-117.5 -31.5q-72 0 -121 41.5t-49 114.5q0 67 43 105t116 48l134 19
q37 5 58 20t21 52q0 49 -39 77t-103 28t-103.5 -28.5t-47.5 -77.5h-57q13 75 69 115t145 40zM415 721v-81h-79v81h79zM228 721v-81h-79v81h79z" />
    <glyph glyph-name="aring" unicode="&#xe5;" horiz-adv-x="554" 
d="M419 235v57q-25 -18 -98 -28l-86 -11q-126 -16 -126 -106q0 -51 34.5 -77.5t84.5 -26.5q74 0 132.5 51.5t58.5 140.5zM286 542q92 0 142.5 -43t50.5 -129v-370h-57v104q-29 -53 -84.5 -84.5t-117.5 -31.5q-72 0 -121 41.5t-49 114.5q0 67 43 105t116 48l134 19
q37 5 58 20t21 52q0 49 -39 77t-103 28t-103.5 -28.5t-47.5 -77.5h-57q13 75 69 115t145 40zM349 732q0 24 -16.5 41t-39.5 17t-39 -17t-16 -41q0 -25 16 -42.5t39 -17.5t39.5 17.5t16.5 42.5zM197 732q0 42 28 69t68 27q41 0 69 -27t28 -69t-28 -69.5t-69 -27.5t-68.5 27.5
t-27.5 69.5z" />
    <glyph glyph-name="ae" unicode="&#xe6;" horiz-adv-x="943" 
d="M419 235v57q-25 -18 -98 -28l-86 -11q-126 -16 -126 -106q0 -51 34.5 -77.5t84.5 -26.5q74 0 132.5 51.5t58.5 140.5zM481 305h354q-1 88 -49 136t-120 48q-73 0 -126 -48t-59 -136zM893 253h-414q0 -103 55 -157.5t134 -54.5q58 0 107 30.5t61 89.5h53
q-18 -87 -81.5 -130t-143.5 -43q-75 0 -135.5 39.5t-87.5 116.5q-28 -76 -91 -116t-130 -40q-72 0 -121 41.5t-49 114.5q0 67 43 105t116 48l134 19q37 5 58 20t21 52q0 49 -39 77t-103 28t-103.5 -28.5t-47.5 -77.5h-57q13 75 69 115t145 40q147 0 182 -103q69 103 201 103
q99 0 161.5 -65.5t62.5 -192.5v-31z" />
    <glyph glyph-name="ccedilla" unicode="&#xe7;" horiz-adv-x="568" 
d="M462 182h56q-7 -89 -67 -140.5t-150 -53.5v-51h5q43 0 68 -21t25 -53t-25 -56.5t-72 -24.5q-57 0 -103 40l23 34q40 -37 81 -37q55 0 55 42q0 53 -103 53l12 75q-104 10 -160.5 88t-56.5 188q0 119 66 198t185 79q88 0 147.5 -46.5t68.5 -132.5h-56q-8 60 -51.5 93
t-109.5 33q-92 0 -142 -62.5t-50 -158.5t49 -160.5t141 -64.5q68 0 112.5 36t51.5 103z" />
    <glyph glyph-name="egrave" unicode="&#xe8;" horiz-adv-x="571" 
d="M294 489q-73 0 -126 -48t-59 -136h354q-1 88 -49 136t-120 48zM521 253h-414q0 -103 55 -157.5t133 -54.5q59 0 108 30.5t61 89.5h53q-18 -87 -81.5 -130t-143.5 -43q-102 0 -172 70.5t-70 204.5q0 136 71.5 207.5t175.5 71.5q99 0 161.5 -65.5t62.5 -192.5v-31zM206 820
l117 -180h-48l-122 141z" />
    <glyph glyph-name="eacute" unicode="&#xe9;" horiz-adv-x="571" 
d="M294 489q-73 0 -126 -48t-59 -136h354q-1 88 -49 136t-120 48zM521 253h-414q0 -103 55 -157.5t133 -54.5q59 0 108 30.5t61 89.5h53q-18 -87 -81.5 -130t-143.5 -43q-102 0 -172 70.5t-70 204.5q0 136 71.5 207.5t175.5 71.5q99 0 161.5 -65.5t62.5 -192.5v-31zM330 640
h-48l117 180l53 -39z" />
    <glyph glyph-name="ecircumflex" unicode="&#xea;" horiz-adv-x="571" 
d="M294 489q-73 0 -126 -48t-59 -136h354q-1 88 -49 136t-120 48zM521 253h-414q0 -103 55 -157.5t133 -54.5q59 0 108 30.5t61 89.5h53q-18 -87 -81.5 -130t-143.5 -43q-102 0 -172 70.5t-70 204.5q0 136 71.5 207.5t175.5 71.5q99 0 161.5 -65.5t62.5 -192.5v-31zM293 746
l-84 -106h-64l129 163h39l129 -163h-64z" />
    <glyph glyph-name="edieresis" unicode="&#xeb;" horiz-adv-x="571" 
d="M294 489q-73 0 -126 -48t-59 -136h354q-1 88 -49 136t-120 48zM521 253h-414q0 -103 55 -157.5t133 -54.5q59 0 108 30.5t61 89.5h53q-18 -87 -81.5 -130t-143.5 -43q-102 0 -172 70.5t-70 204.5q0 136 71.5 207.5t175.5 71.5q99 0 161.5 -65.5t62.5 -192.5v-31zM437 721
v-81h-79v81h79zM250 721v-81h-79v81h79z" />
    <glyph glyph-name="igrave" unicode="&#xec;" horiz-adv-x="217" 
d="M137 0h-57v532h57v-532zM11 820l117 -180h-48l-122 141z" />
    <glyph glyph-name="iacute" unicode="&#xed;" horiz-adv-x="217" 
d="M137 0h-57v532h57v-532zM139 640h-48l117 180l53 -39z" />
    <glyph glyph-name="icircumflex" unicode="&#xee;" horiz-adv-x="217" 
d="M137 0h-57v532h57v-532zM108 746l-84 -106h-64l129 163h39l129 -163h-64z" />
    <glyph glyph-name="idieresis" unicode="&#xef;" horiz-adv-x="217" 
d="M137 0h-57v532h57v-532zM244 721v-81h-79v81h79zM57 721v-81h-79v81h79z" />
    <glyph glyph-name="eth" unicode="&#xf0;" horiz-adv-x="597" 
d="M281 41q77 0 135 49.5t58 138.5q0 86 -55.5 136t-133.5 50q-75 0 -129.5 -47t-54.5 -138q0 -89 52 -139t128 -50zM499 697l-31 -26q91 -100 91 -303q0 -104 -23.5 -180.5t-63.5 -118.5t-86.5 -61.5t-99.5 -19.5q-105 0 -174.5 67.5t-69.5 180.5q0 111 67.5 173.5
t166.5 62.5q71 0 135.5 -33.5t93.5 -104.5v25q-1 190 -80 276l-109 -91l-39 46l100 83q-43 23 -95 23q-65 0 -110 -34.5t-50 -93.5h-60q8 89 68.5 135.5t146.5 46.5q82 0 144 -40l78 64v-77z" />
    <glyph glyph-name="ntilde" unicode="&#xf1;" horiz-adv-x="593" 
d="M337 542q81 0 128.5 -44t47.5 -130v-368h-57v359q0 64 -35.5 97.5t-92.5 33.5q-76 0 -131 -54.5t-55 -149.5v-286h-57v532h57v-105q58 115 195 115zM429 766h38q0 -60 -25.5 -95t-62.5 -35q-28 0 -72 35.5t-59 35.5q-39 0 -52 -67h-44q6 59 31.5 92.5t61.5 33.5
q29 0 73 -36.5t61 -36.5q41 0 50 73z" />
    <glyph glyph-name="ograve" unicode="&#xf2;" horiz-adv-x="603" 
d="M303 43q82 0 136.5 59.5t54.5 161.5v7q-2 101 -57 158.5t-137 57.5q-84 0 -137.5 -59.5t-53.5 -157.5v-7q1 -100 56.5 -160t137.5 -60zM300 542q112 0 182.5 -75t70.5 -203q0 -127 -69.5 -201.5t-181.5 -74.5t-182 74.5t-70 202.5q0 127 69.5 202t180.5 75zM214 820
l117 -180h-48l-122 141z" />
    <glyph glyph-name="oacute" unicode="&#xf3;" horiz-adv-x="603" 
d="M303 43q82 0 136.5 59.5t54.5 161.5v7q-2 101 -57 158.5t-137 57.5q-84 0 -137.5 -59.5t-53.5 -157.5v-7q1 -100 56.5 -160t137.5 -60zM300 542q112 0 182.5 -75t70.5 -203q0 -127 -69.5 -201.5t-181.5 -74.5t-182 74.5t-70 202.5q0 127 69.5 202t180.5 75zM334 640h-48
l117 180l53 -39z" />
    <glyph glyph-name="ocircumflex" unicode="&#xf4;" horiz-adv-x="603" 
d="M303 43q82 0 136.5 59.5t54.5 161.5v7q-2 101 -57 158.5t-137 57.5q-84 0 -137.5 -59.5t-53.5 -157.5v-7q1 -100 56.5 -160t137.5 -60zM300 542q112 0 182.5 -75t70.5 -203q0 -127 -69.5 -201.5t-181.5 -74.5t-182 74.5t-70 202.5q0 127 69.5 202t180.5 75zM296 746
l-84 -106h-64l129 163h39l129 -163h-64z" />
    <glyph glyph-name="otilde" unicode="&#xf5;" horiz-adv-x="603" 
d="M303 43q82 0 136.5 59.5t54.5 161.5v7q-2 101 -57 158.5t-137 57.5q-84 0 -137.5 -59.5t-53.5 -157.5v-7q1 -100 56.5 -160t137.5 -60zM300 542q112 0 182.5 -75t70.5 -203q0 -127 -69.5 -201.5t-181.5 -74.5t-182 74.5t-70 202.5q0 127 69.5 202t180.5 75zM414 766h38
q0 -60 -25.5 -95t-62.5 -35q-28 0 -72 35.5t-59 35.5q-39 0 -52 -67h-44q6 59 31.5 92.5t61.5 33.5q28 0 73 -36.5t61 -36.5q41 0 50 73z" />
    <glyph glyph-name="odieresis" unicode="&#xf6;" horiz-adv-x="603" 
d="M303 43q82 0 136.5 59.5t54.5 161.5v7q-2 101 -57 158.5t-137 57.5q-84 0 -137.5 -59.5t-53.5 -157.5v-7q1 -100 56.5 -160t137.5 -60zM300 542q112 0 182.5 -75t70.5 -203q0 -127 -69.5 -201.5t-181.5 -74.5t-182 74.5t-70 202.5q0 127 69.5 202t180.5 75zM430 721v-81
h-79v81h79zM243 721v-81h-79v81h79z" />
    <glyph glyph-name="divide" unicode="&#xf7;" horiz-adv-x="500" 
d="M212 171h78v-82h-78v82zM40 268v53h420v-53h-420zM212 503h78v-82h-78v82z" />
    <glyph glyph-name="oslash" unicode="&#xf8;" horiz-adv-x="603" 
d="M303 43q82 0 136.5 59.5t54.5 161.5v7q-3 133 -96 190l-149 -411q30 -7 54 -7zM109 263q1 -66 26.5 -115.5t68.5 -76.5l148 409q-22 7 -52 7q-84 0 -137.5 -59.5t-53.5 -157.5v-7zM457 623l-39 -108q63 -31 99 -96t36 -155q0 -127 -69.5 -201.5t-181.5 -74.5q-39 0 -72 9
l-34 -93h-53l40 111q-62 31 -97.5 95.5t-35.5 154.5q0 127 69.5 202t180.5 75q38 0 71 -9l33 90h53z" />
    <glyph glyph-name="ugrave" unicode="&#xf9;" horiz-adv-x="587" 
d="M438 0v109q-55 -115 -183 -115q-78 0 -126.5 46t-48.5 135v357h57v-354q0 -65 34 -100t91 -35q73 0 123 54t50 152v283h57v-532h-54zM206 820l117 -180h-48l-122 141z" />
    <glyph glyph-name="uacute" unicode="&#xfa;" horiz-adv-x="587" 
d="M438 0v109q-55 -115 -183 -115q-78 0 -126.5 46t-48.5 135v357h57v-354q0 -65 34 -100t91 -35q73 0 123 54t50 152v283h57v-532h-54zM300 640h-48l117 180l53 -39z" />
    <glyph glyph-name="ucircumflex" unicode="&#xfb;" horiz-adv-x="587" 
d="M438 0v109q-55 -115 -183 -115q-78 0 -126.5 46t-48.5 135v357h57v-354q0 -65 34 -100t91 -35q73 0 123 54t50 152v283h57v-532h-54zM285 746l-84 -106h-64l129 163h39l129 -163h-64z" />
    <glyph glyph-name="udieresis" unicode="&#xfc;" horiz-adv-x="587" 
d="M438 0v109q-55 -115 -183 -115q-78 0 -126.5 46t-48.5 135v357h57v-354q0 -65 34 -100t91 -35q73 0 123 54t50 152v283h57v-532h-54zM417 721v-81h-79v81h79zM230 721v-81h-79v81h79z" />
    <glyph glyph-name="yacute" unicode="&#xfd;" horiz-adv-x="485" 
d="M465 532l-243 -640q-26 -68 -113 -68h-49v52h50q29 0 47 16.5t30 49.5l30 82l-197 508h60l164 -441l165 441h56zM267 640h-48l117 180l53 -39z" />
    <glyph glyph-name="thorn" unicode="&#xfe;" horiz-adv-x="621" 
d="M326 44q77 0 131.5 55.5t54.5 163.5q0 111 -54 166.5t-131 55.5q-76 0 -131 -55.5t-55 -166.5q0 -108 55 -163.5t130 -55.5zM341 542q95 0 162.5 -69.5t67.5 -205.5q0 -69 -20 -123t-54.5 -85.5t-76 -47.5t-87.5 -16q-131 0 -191 99v-300h-57v968h57v-343q20 53 76 88
t123 35z" />
    <glyph glyph-name="ydieresis" unicode="&#xff;" horiz-adv-x="485" 
d="M465 532l-243 -640q-26 -68 -113 -68h-49v52h50q29 0 47 16.5t30 49.5l30 82l-197 508h60l164 -441l165 441h56zM365 721v-81h-79v81h79zM178 721v-81h-79v81h79z" />
    <glyph glyph-name="Amacron" unicode="&#x100;" horiz-adv-x="763" 
d="M377 687l-163 -414h331zM194 220l-88 -220h-66l302 750h69l312 -750h-68l-89 220h-372zM222 833v47h319v-47h-319z" />
    <glyph glyph-name="amacron" unicode="&#x101;" horiz-adv-x="554" 
d="M419 235v57q-25 -18 -98 -28l-86 -11q-126 -16 -126 -106q0 -51 34.5 -77.5t84.5 -26.5q74 0 132.5 51.5t58.5 140.5zM286 542q92 0 142.5 -43t50.5 -129v-370h-57v104q-29 -53 -84.5 -84.5t-117.5 -31.5q-72 0 -121 41.5t-49 114.5q0 67 43 105t116 48l134 19
q37 5 58 20t21 52q0 49 -39 77t-103 28t-103.5 -28.5t-47.5 -77.5h-57q13 75 69 115t145 40zM116 640v47h319v-47h-319z" />
    <glyph glyph-name="Abreve" unicode="&#x102;" horiz-adv-x="763" 
d="M377 687l-163 -414h331zM194 220l-88 -220h-66l302 750h69l312 -750h-68l-89 220h-372zM442 970h49q6 -18 6 -40q0 -44 -28 -73.5t-87 -29.5t-87 29.5t-28 73.5q0 22 6 40h49q-5 -15 -5 -31q0 -71 65 -71t65 71q0 16 -5 31z" />
    <glyph glyph-name="abreve" unicode="&#x103;" horiz-adv-x="554" 
d="M419 235v57q-25 -18 -98 -28l-86 -11q-126 -16 -126 -106q0 -51 34.5 -77.5t84.5 -26.5q74 0 132.5 51.5t58.5 140.5zM286 542q92 0 142.5 -43t50.5 -129v-370h-57v104q-29 -53 -84.5 -84.5t-117.5 -31.5q-72 0 -121 41.5t-49 114.5q0 67 43 105t116 48l134 19
q37 5 58 20t21 52q0 49 -39 77t-103 28t-103.5 -28.5t-47.5 -77.5h-57q13 75 69 115t145 40zM351 778h49q6 -18 6 -40q0 -44 -28 -73.5t-87 -29.5t-87 29.5t-28 73.5q0 22 6 40h49q-5 -15 -5 -31q0 -71 65 -71t65 71q0 16 -5 31z" />
    <glyph glyph-name="Aogonek" unicode="&#x104;" horiz-adv-x="763" 
d="M545 273l-168 414l-163 -414h331zM675 -50q0 -32 28.5 -52.5t62.5 -21.5v-52q-58 5 -99.5 37.5t-41.5 77.5q0 39 30 62l-89 219h-372l-88 -220h-66l302 750h69l312 -750h-24q-24 -21 -24 -50z" />
    <glyph glyph-name="aogonek" unicode="&#x105;" horiz-adv-x="554" 
d="M419 235v57q-25 -18 -98 -28l-86 -11q-126 -16 -126 -106q0 -51 34.5 -77.5t84.5 -26.5q74 0 132.5 51.5t58.5 140.5zM443 -50q0 -32 28.5 -52.5t62.5 -21.5v-52q-58 5 -99.5 37.5t-41.5 77.5q0 38 29 62v103q-29 -53 -84.5 -84.5t-117.5 -31.5q-72 0 -121 41.5
t-49 114.5q0 67 43 105t116 48l134 19q37 5 58 20t21 52q0 49 -39 77t-103 28t-103.5 -28.5t-47.5 -77.5h-57q13 75 69 115t145 40q92 0 142.5 -43t50.5 -129v-370h-12q-24 -21 -24 -50z" />
    <glyph glyph-name="Cacute" unicode="&#x106;" horiz-adv-x="779" 
d="M415 38q101 0 169.5 53.5t76.5 150.5h63q-9 -122 -97 -191.5t-216 -69.5q-113 0 -194 56t-119 145.5t-38 199.5q0 95 30 170.5t80 121.5t111.5 70t129.5 24q116 0 205.5 -63t100.5 -169h-63q-11 79 -82.5 127t-162.5 48q-117 0 -202 -84t-85 -243q0 -148 76.5 -247
t216.5 -99zM441 832h-48l117 180l53 -39z" />
    <glyph glyph-name="cacute" unicode="&#x107;" horiz-adv-x="568" 
d="M298 43q68 0 112.5 36t51.5 103h56q-7 -90 -68.5 -142t-154.5 -52q-117 0 -181 80t-64 197q0 119 66 198t185 79q88 0 147.5 -46.5t68.5 -132.5h-56q-8 60 -51.5 93t-109.5 33q-92 0 -142 -62.5t-50 -158.5t49 -160.5t141 -64.5zM319 640h-48l117 180l53 -39z" />
    <glyph glyph-name="Ccircumflex" unicode="&#x108;" horiz-adv-x="779" 
d="M415 38q101 0 169.5 53.5t76.5 150.5h63q-9 -122 -97 -191.5t-216 -69.5q-113 0 -194 56t-119 145.5t-38 199.5q0 95 30 170.5t80 121.5t111.5 70t129.5 24q116 0 205.5 -63t100.5 -169h-63q-11 79 -82.5 127t-162.5 48q-117 0 -202 -84t-85 -243q0 -148 76.5 -247
t216.5 -99zM414 938l-84 -106h-64l129 163h39l129 -163h-64z" />
    <glyph glyph-name="ccircumflex" unicode="&#x109;" horiz-adv-x="568" 
d="M298 43q68 0 112.5 36t51.5 103h56q-7 -90 -68.5 -142t-154.5 -52q-117 0 -181 80t-64 197q0 119 66 198t185 79q88 0 147.5 -46.5t68.5 -132.5h-56q-8 60 -51.5 93t-109.5 33q-92 0 -142 -62.5t-50 -158.5t49 -160.5t141 -64.5zM300 746l-84 -106h-64l129 163h39
l129 -163h-64z" />
    <glyph glyph-name="Cdotaccent" unicode="&#x10a;" horiz-adv-x="779" 
d="M415 38q101 0 169.5 53.5t76.5 150.5h63q-9 -122 -97 -191.5t-216 -69.5q-113 0 -194 56t-119 145.5t-38 199.5q0 95 30 170.5t80 121.5t111.5 70t129.5 24q116 0 205.5 -63t100.5 -169h-63q-11 79 -82.5 127t-162.5 48q-117 0 -202 -84t-85 -243q0 -148 76.5 -247
t216.5 -99zM376 923h87v-91h-87v91z" />
    <glyph glyph-name="cdotaccent" unicode="&#x10b;" horiz-adv-x="568" 
d="M298 43q68 0 112.5 36t51.5 103h56q-7 -90 -68.5 -142t-154.5 -52q-117 0 -181 80t-64 197q0 119 66 198t185 79q88 0 147.5 -46.5t68.5 -132.5h-56q-8 60 -51.5 93t-109.5 33q-92 0 -142 -62.5t-50 -158.5t49 -160.5t141 -64.5zM242 731h87v-91h-87v91z" />
    <glyph glyph-name="Ccaron" unicode="&#x10c;" horiz-adv-x="779" 
d="M415 38q101 0 169.5 53.5t76.5 150.5h63q-9 -122 -97 -191.5t-216 -69.5q-113 0 -194 56t-119 145.5t-38 199.5q0 95 30 170.5t80 121.5t111.5 70t129.5 24q116 0 205.5 -63t100.5 -169h-63q-11 79 -82.5 127t-162.5 48q-117 0 -202 -84t-85 -243q0 -148 76.5 -247
t216.5 -99zM567 995l-129 -163h-39l-129 163h64l84 -106l85 106h64z" />
    <glyph glyph-name="ccaron" unicode="&#x10d;" horiz-adv-x="568" 
d="M298 43q68 0 112.5 36t51.5 103h56q-7 -90 -68.5 -142t-154.5 -52q-117 0 -181 80t-64 197q0 119 66 198t185 79q88 0 147.5 -46.5t68.5 -132.5h-56q-8 60 -51.5 93t-109.5 33q-92 0 -142 -62.5t-50 -158.5t49 -160.5t141 -64.5zM296 697l84 106h64l-129 -163h-39
l-129 163h64z" />
    <glyph glyph-name="Dcaron" unicode="&#x10e;" horiz-adv-x="736" 
d="M155 54h147q75 0 136 28.5t98 76t57 105.5t20 121q0 129 -79 220.5t-222 91.5h-157v-643zM95 750h224q86 0 155.5 -30t112.5 -81t66 -115t23 -135q0 -73 -24 -141t-69 -124t-118.5 -90t-165.5 -34h-204v750zM446 995l-129 -163h-39l-129 163h64l84 -106l85 106h64z" />
    <glyph glyph-name="dcaron" unicode="&#x10f;" horiz-adv-x="788" 
d="M296 41q76 0 130.5 57t54.5 169t-55 167t-131 55q-77 0 -131.5 -55.5t-54.5 -166.5t55 -168.5t132 -57.5zM748 762v-96q0 -140 -132 -159l-11 38q58 14 76 45.5t18 87.5h-43v84h92zM537 0h-54v101q-22 -46 -75 -79.5t-121 -33.5q-97 0 -167 71.5t-70 208.5q0 136 70 205
t167 69q65 0 117.5 -30t75.5 -74v324h57v-762z" />
    <glyph glyph-name="Dcroat" unicode="&#x110;" horiz-adv-x="736" 
d="M155 54h147q75 0 136 28.5t98 76t57 105.5t20 121q0 129 -79 220.5t-222 91.5h-157v-287h214v-57h-214v-299zM95 750h224q86 0 155.5 -30t112.5 -81t66 -115t23 -135q0 -73 -24 -141t-69 -124t-118.5 -90t-165.5 -34h-204v353h-105v57h105v340z" />
    <glyph glyph-name="dcroat" unicode="&#x111;" horiz-adv-x="643" 
d="M296 41q76 0 130.5 57t54.5 169t-55 167t-131 55q-77 0 -131.5 -55.5t-54.5 -166.5t55 -168.5t132 -57.5zM613 624h-76v-624h-54v101q-22 -46 -75 -79.5t-121 -33.5q-97 0 -167 71.5t-70 208.5q0 136 70 205t167 69q65 0 117.5 -30t75.5 -74v186h-146v53h146v85h57v-85
h76v-53z" />
    <glyph glyph-name="Emacron" unicode="&#x112;" horiz-adv-x="623" 
d="M95 0v750h458v-53h-398v-291h370v-54h-370v-298h418v-54h-478zM165 833v47h319v-47h-319z" />
    <glyph glyph-name="emacron" unicode="&#x113;" horiz-adv-x="571" 
d="M294 489q-73 0 -126 -48t-59 -136h354q-1 88 -49 136t-120 48zM521 253h-414q0 -103 55 -157.5t133 -54.5q59 0 108 30.5t61 89.5h53q-18 -87 -81.5 -130t-143.5 -43q-102 0 -172 70.5t-70 204.5q0 136 71.5 207.5t175.5 71.5q99 0 161.5 -65.5t62.5 -192.5v-31zM132 640
v47h319v-47h-319z" />
    <glyph glyph-name="Ebreve" unicode="&#x114;" horiz-adv-x="623" 
d="M95 0v750h458v-53h-398v-291h370v-54h-370v-298h418v-54h-478zM394 970h49q6 -18 6 -40q0 -44 -28 -73.5t-87 -29.5t-87 29.5t-28 73.5q0 22 6 40h49q-5 -15 -5 -31q0 -71 65 -71t65 71q0 16 -5 31z" />
    <glyph glyph-name="ebreve" unicode="&#x115;" horiz-adv-x="571" 
d="M294 489q-73 0 -126 -48t-59 -136h354q-1 88 -49 136t-120 48zM521 253h-414q0 -103 55 -157.5t133 -54.5q59 0 108 30.5t61 89.5h53q-18 -87 -81.5 -130t-143.5 -43q-102 0 -172 70.5t-70 204.5q0 136 71.5 207.5t175.5 71.5q99 0 161.5 -65.5t62.5 -192.5v-31zM356 778
h49q6 -18 6 -40q0 -44 -28 -73.5t-87 -29.5t-87 29.5t-28 73.5q0 22 6 40h49q-5 -15 -5 -31q0 -71 65 -71t65 71q0 16 -5 31z" />
    <glyph glyph-name="Edotaccent" unicode="&#x116;" horiz-adv-x="623" 
d="M95 0v750h458v-53h-398v-291h370v-54h-370v-298h418v-54h-478zM275 923h87v-91h-87v91z" />
    <glyph glyph-name="edotaccent" unicode="&#x117;" horiz-adv-x="571" 
d="M294 489q-73 0 -126 -48t-59 -136h354q-1 88 -49 136t-120 48zM521 253h-414q0 -103 55 -157.5t133 -54.5q59 0 108 30.5t61 89.5h53q-18 -87 -81.5 -130t-143.5 -43q-102 0 -172 70.5t-70 204.5q0 136 71.5 207.5t175.5 71.5q99 0 161.5 -65.5t62.5 -192.5v-31zM251 731
h87v-91h-87v91z" />
    <glyph glyph-name="Eogonek" unicode="&#x118;" horiz-adv-x="623" 
d="M530 -50q0 -32 28.5 -52.5t62.5 -21.5v-52q-58 5 -99.5 37.5t-41.5 77.5q0 38 28 61h-413v750h458v-53h-398v-291h370v-54h-370v-298h418v-54h-19q-24 -21 -24 -50z" />
    <glyph glyph-name="eogonek" unicode="&#x119;" horiz-adv-x="571" 
d="M109 305h354q-1 88 -49 136t-120 48q-73 0 -126 -48t-59 -136zM521 253h-414q0 -103 55 -157.5t133 -54.5q59 0 108 30.5t61 89.5h53q-18 -87 -81 -130t-143 -43q-13 -16 -13 -38q0 -32 28.5 -52.5t62.5 -21.5v-52q-58 5 -99.5 37.5t-41.5 77.5q0 31 19 52
q-87 14 -143 83.5t-56 188.5q0 136 71.5 207.5t175.5 71.5q99 0 161.5 -65.5t62.5 -192.5v-31z" />
    <glyph glyph-name="Ecaron" unicode="&#x11a;" horiz-adv-x="623" 
d="M95 0v750h458v-53h-398v-291h370v-54h-370v-298h418v-54h-478zM466 995l-129 -163h-39l-129 163h64l84 -106l85 106h64z" />
    <glyph glyph-name="ecaron" unicode="&#x11b;" horiz-adv-x="571" 
d="M294 489q-73 0 -126 -48t-59 -136h354q-1 88 -49 136t-120 48zM521 253h-414q0 -103 55 -157.5t133 -54.5q59 0 108 30.5t61 89.5h53q-18 -87 -81.5 -130t-143.5 -43q-102 0 -172 70.5t-70 204.5q0 136 71.5 207.5t175.5 71.5q99 0 161.5 -65.5t62.5 -192.5v-31zM299 697
l84 106h64l-129 -163h-39l-129 163h64z" />
    <glyph glyph-name="Gcircumflex" unicode="&#x11c;" horiz-adv-x="807" 
d="M717 371v-371h-55v122q-32 -64 -102 -102.5t-161 -38.5q-160 0 -249.5 115.5t-89.5 285.5q0 95 30 170.5t80 121.5t111.5 70t129.5 24q116 0 205.5 -63t100.5 -169h-63q-11 79 -82.5 127t-162.5 48q-118 0 -202.5 -84.5t-84.5 -244.5q0 -148 75 -247.5t210 -99.5
q117 0 186 77t68 205h-256v54h312zM415 938l-84 -106h-64l129 163h39l129 -163h-64z" />
    <glyph glyph-name="gcircumflex" unicode="&#x11d;" horiz-adv-x="614" 
d="M292 70q73 0 126 51.5t53 157.5q0 102 -50.5 157t-125.5 55q-76 0 -132 -54t-56 -156q0 -100 54 -155.5t131 -55.5zM534 532v-518q0 -111 -65 -171.5t-170 -60.5q-95 0 -159 49.5t-74 132.5h57q10 -60 53 -96t121 -36q82 0 132.5 43.5t50.5 135.5v120q-29 -59 -84.5 -86
t-115.5 -27q-99 0 -164.5 69.5t-65.5 192.5q0 128 70 195t172 67q128 0 185 -100v90h57zM292 746l-84 -106h-64l129 163h39l129 -163h-64z" />
    <glyph glyph-name="Gbreve" unicode="&#x11e;" horiz-adv-x="807" 
d="M717 371v-371h-55v122q-32 -64 -102 -102.5t-161 -38.5q-160 0 -249.5 115.5t-89.5 285.5q0 95 30 170.5t80 121.5t111.5 70t129.5 24q116 0 205.5 -63t100.5 -169h-63q-11 79 -82.5 127t-162.5 48q-118 0 -202.5 -84.5t-84.5 -244.5q0 -148 75 -247.5t210 -99.5
q117 0 186 77t68 205h-256v54h312zM469 970h49q6 -18 6 -40q0 -44 -28 -73.5t-87 -29.5t-87 29.5t-28 73.5q0 22 6 40h49q-5 -15 -5 -31q0 -71 65 -71t65 71q0 16 -5 31z" />
    <glyph glyph-name="gbreve" unicode="&#x11f;" horiz-adv-x="614" 
d="M292 70q73 0 126 51.5t53 157.5q0 102 -50.5 157t-125.5 55q-76 0 -132 -54t-56 -156q0 -100 54 -155.5t131 -55.5zM534 532v-518q0 -111 -65 -171.5t-170 -60.5q-95 0 -159 49.5t-74 132.5h57q10 -60 53 -96t121 -36q82 0 132.5 43.5t50.5 135.5v120q-29 -59 -84.5 -86
t-115.5 -27q-99 0 -164.5 69.5t-65.5 192.5q0 128 70 195t172 67q128 0 185 -100v90h57zM351 778h49q6 -18 6 -40q0 -44 -28 -73.5t-87 -29.5t-87 29.5t-28 73.5q0 22 6 40h49q-5 -15 -5 -31q0 -71 65 -71t65 71q0 16 -5 31z" />
    <glyph glyph-name="Gdotaccent" unicode="&#x120;" horiz-adv-x="807" 
d="M717 371v-371h-55v122q-32 -64 -102 -102.5t-161 -38.5q-160 0 -249.5 115.5t-89.5 285.5q0 95 30 170.5t80 121.5t111.5 70t129.5 24q116 0 205.5 -63t100.5 -169h-63q-11 79 -82.5 127t-162.5 48q-118 0 -202.5 -84.5t-84.5 -244.5q0 -148 75 -247.5t210 -99.5
q117 0 186 77t68 205h-256v54h312zM361 923h87v-91h-87v91z" />
    <glyph glyph-name="gdotaccent" unicode="&#x121;" horiz-adv-x="614" 
d="M292 70q73 0 126 51.5t53 157.5q0 102 -50.5 157t-125.5 55q-76 0 -132 -54t-56 -156q0 -100 54 -155.5t131 -55.5zM534 532v-518q0 -111 -65 -171.5t-170 -60.5q-95 0 -159 49.5t-74 132.5h57q10 -60 53 -96t121 -36q82 0 132.5 43.5t50.5 135.5v120q-29 -59 -84.5 -86
t-115.5 -27q-99 0 -164.5 69.5t-65.5 192.5q0 128 70 195t172 67q128 0 185 -100v90h57zM239 731h87v-91h-87v91z" />
    <glyph glyph-name="uni0122" unicode="&#x122;" horiz-adv-x="807" 
d="M440 -89v-96q0 -140 -132 -159l-11 38q58 14 76 45.5t18 87.5h-43v84h92zM717 371v-371h-55v122q-32 -64 -102 -102.5t-161 -38.5q-160 0 -249.5 115.5t-89.5 285.5q0 95 30 170.5t80 121.5t111.5 70t129.5 24q116 0 205.5 -63t100.5 -169h-63q-11 79 -82.5 127
t-162.5 48q-118 0 -202.5 -84.5t-84.5 -244.5q0 -148 75 -247.5t210 -99.5q117 0 186 77t68 205h-256v54h312z" />
    <glyph glyph-name="uni0123" unicode="&#x123;" horiz-adv-x="614" 
d="M292 70q73 0 126 51.5t53 157.5q0 102 -50.5 157t-125.5 55q-76 0 -132 -54t-56 -156q0 -100 54 -155.5t131 -55.5zM534 532v-518q0 -111 -65 -171.5t-170 -60.5q-95 0 -159 49.5t-74 132.5h57q10 -60 53 -96t121 -36q82 0 132.5 43.5t50.5 135.5v120q-29 -59 -84.5 -86
t-115.5 -27q-99 0 -164.5 69.5t-65.5 192.5q0 128 70 195t172 67q128 0 185 -100v90h57zM238 645v96q0 140 132 159l11 -38q-58 -14 -76 -45.5t-18 -87.5h43v-84h-92z" />
    <glyph glyph-name="Hcircumflex" unicode="&#x124;" horiz-adv-x="736" 
d="M641 0h-60v351h-426v-351h-60v750h60v-345h426v345h60v-750zM368 938l-84 -106h-64l129 163h39l129 -163h-64z" />
    <glyph glyph-name="hcircumflex" unicode="&#x125;" horiz-adv-x="593" 
d="M335 542q82 0 130 -43.5t48 -130.5v-368h-57v359q0 64 -35.5 97.5t-92.5 33.5q-76 0 -131 -54.5t-55 -149.5v-286h-57v762h57v-331q56 111 193 111zM366 746l-84 -106h-64l129 163h39l129 -163h-64z" />
    <glyph glyph-name="Hbar" unicode="&#x126;" horiz-adv-x="830" 
d="M621 528h-426v-123h426v123zM810 528h-129v-528h-60v351h-426v-351h-60v528h-115v53h115v169h60v-169h426v169h60v-169h129v-53z" />
    <glyph glyph-name="hbar" unicode="&#x127;" horiz-adv-x="621" 
d="M363 542q82 0 130 -43.5t48 -130.5v-368h-57v359q0 64 -35.5 97.5t-92.5 33.5q-76 0 -131 -54.5t-55 -149.5v-286h-57v624h-83v53h83v85h57v-85h139v-53h-139v-193q56 111 193 111z" />
    <glyph glyph-name="Itilde" unicode="&#x128;" horiz-adv-x="260" 
d="M160 0h-60v750h60v-750zM267 958h38q0 -60 -25.5 -95t-62.5 -35q-28 0 -72 35.5t-59 35.5q-39 0 -52 -67h-44q6 59 31.5 92.5t61.5 33.5q29 0 73 -36.5t61 -36.5q41 0 50 73z" />
    <glyph glyph-name="itilde" unicode="&#x129;" horiz-adv-x="217" 
d="M137 0h-57v532h57v-532zM241 766h38q0 -60 -25.5 -95t-62.5 -35q-28 0 -72 35.5t-59 35.5q-39 0 -52 -67h-44q6 59 31.5 92.5t61.5 33.5q29 0 73 -36.5t61 -36.5q41 0 50 73z" />
    <glyph glyph-name="Imacron" unicode="&#x12a;" horiz-adv-x="260" 
d="M171 0h-60v750h60v-750zM-19 833v47h319v-47h-319z" />
    <glyph glyph-name="imacron" unicode="&#x12b;" horiz-adv-x="217" 
d="M137 0h-57v532h57v-532zM-51 640v47h319v-47h-319z" />
    <glyph glyph-name="Iogonek" unicode="&#x12e;" horiz-adv-x="260" 
d="M120 -50q0 -32 28.5 -52.5t62.5 -21.5v-52q-58 5 -99.5 37.5t-41.5 77.5q0 40 30 63v748h60v-750h-16q-24 -21 -24 -50z" />
    <glyph glyph-name="iogonek" unicode="&#x12f;" horiz-adv-x="227" 
d="M98 -50q0 -32 28.5 -52.5t62.5 -21.5v-52q-58 5 -99.5 37.5t-41.5 77.5q0 46 38 68h1v525h57v-532h-22q-24 -21 -24 -50zM149 677h-67v73h67v-73z" />
    <glyph glyph-name="Idotaccent" unicode="&#x130;" horiz-adv-x="260" 
d="M161 0h-60v750h60v-750zM87 923h87v-91h-87v91z" />
    <glyph glyph-name="dotlessi" unicode="&#x131;" horiz-adv-x="217" 
d="M137 0h-57v532h57v-532z" />
    <glyph glyph-name="IJ" unicode="&#x132;" horiz-adv-x="783" 
d="M698 750v-547q0 -110 -55.5 -166t-145.5 -56t-148.5 53t-58.5 148v60h60v-55q0 -75 40.5 -114t106.5 -39t103.5 40.5t37.5 120.5v555h60zM160 0h-60v750h60v-750z" />
    <glyph glyph-name="ij" unicode="&#x133;" horiz-adv-x="477" 
d="M397 532v-607q0 -76 -32 -103.5t-87 -27.5h-41v52h27q43 0 59.5 18t16.5 59v609h57zM142 0h-57v532h57v-532zM402 677h-67v73h67v-73zM147 750v-73h-67v73h67z" />
    <glyph glyph-name="Jcircumflex" unicode="&#x134;" horiz-adv-x="523" 
d="M438 750v-547q0 -110 -55.5 -166t-145.5 -56t-148.5 53t-58.5 148v60h60v-55q0 -75 40.5 -114t106.5 -39t103.5 40.5t37.5 120.5v555h60zM374 938l-84 -106h-64l129 163h39l129 -163h-64z" />
    <glyph glyph-name="jcircumflex" unicode="&#x135;" horiz-adv-x="245" 
d="M170 532v-607q0 -76 -32 -103.5t-87 -27.5h-41v52h27q43 0 59.5 18t16.5 59v609h57zM143 746l-84 -106h-64l129 163h39l129 -163h-64z" />
    <glyph glyph-name="uni0136" unicode="&#x136;" horiz-adv-x="675" 
d="M291 -89h92v-96q0 -140 -132 -159l-11 38q58 14 76 45.5t18 87.5h-43v84zM650 0h-75l-290 388l-130 -143v-245h-60v750h60v-425l385 425h77l-289 -316z" />
    <glyph glyph-name="uni0137" unicode="&#x137;" horiz-adv-x="546" 
d="M225 -89h92v-96q0 -140 -132 -159l-11 38q58 14 76 45.5t18 87.5h-43v84zM516 0h-70l-202 273l-102 -106v-167h-57v762h57v-519l277 289h74l-210 -218z" />
    <glyph glyph-name="kgreenlandic" unicode="&#x138;" horiz-adv-x="546" 
d="M244 273l-102 -106v-167h-57v532h57v-289l277 289h74l-210 -218l233 -314h-70z" />
    <glyph glyph-name="Lacute" unicode="&#x139;" horiz-adv-x="569" 
d="M534 0h-439v750h60v-696h379v-54zM197 832h-48l117 180l53 -39z" />
    <glyph glyph-name="lacute" unicode="&#x13a;" horiz-adv-x="227" 
d="M142 0h-57v762h57v-762zM141 832h-48l117 180l53 -39z" />
    <glyph glyph-name="uni013B" unicode="&#x13b;" horiz-adv-x="569" 
d="M353 -89v-96q0 -140 -132 -159l-11 38q58 14 76 45.5t18 87.5h-43v84h92zM534 0h-439v750h60v-696h379v-54z" />
    <glyph glyph-name="uni013C" unicode="&#x13c;" horiz-adv-x="227" 
d="M159 -89v-96q0 -140 -132 -159l-11 38q58 14 76 45.5t18 87.5h-43v84h92zM142 0h-57v762h57v-762z" />
    <glyph glyph-name="Lcaron" unicode="&#x13d;" horiz-adv-x="667" 
d="M534 0h-439v750h60v-696h379v-54zM637 765v-96q0 -140 -132 -159l-11 38q58 14 76 45.5t18 87.5h-43v84h92z" />
    <glyph glyph-name="lcaron" unicode="&#x13e;" horiz-adv-x="431" 
d="M142 0h-57v762h57v-762zM391 765v-96q0 -140 -132 -159l-11 38q58 14 76 45.5t18 87.5h-43v84h92z" />
    <glyph glyph-name="Ldot" unicode="&#x13f;" horiz-adv-x="569" 
d="M440 531h87v-91h-87v91zM534 0h-439v750h60v-696h379v-54z" />
    <glyph glyph-name="ldot" unicode="&#x140;" horiz-adv-x="403" 
d="M266 465h87v-91h-87v91zM142 0h-57v762h57v-762z" />
    <glyph glyph-name="Lslash" unicode="&#x141;" horiz-adv-x="684" 
d="M649 54v-54h-439v287l-115 -60v57l115 60v406h60v-374l244 128v-57l-244 -128v-265h379z" />
    <glyph glyph-name="lslash" unicode="&#x142;" horiz-adv-x="426" 
d="M341 402l-114 -60v-342h-57v312l-85 -44v57l85 44v393h57v-363l114 60v-57z" />
    <glyph glyph-name="Nacute" unicode="&#x143;" horiz-adv-x="739" 
d="M644 0h-70l-421 680v-680h-58v750h85l406 -664v664h58v-750zM381 832h-48l117 180l53 -39z" />
    <glyph glyph-name="nacute" unicode="&#x144;" horiz-adv-x="593" 
d="M337 542q81 0 128.5 -44t47.5 -130v-368h-57v359q0 64 -35.5 97.5t-92.5 33.5q-76 0 -131 -54.5t-55 -149.5v-286h-57v532h57v-105q58 115 195 115zM336 640h-48l117 180l53 -39z" />
    <glyph glyph-name="uni0145" unicode="&#x145;" horiz-adv-x="739" 
d="M401 -89v-96q0 -140 -132 -159l-11 38q58 14 76 45.5t18 87.5h-43v84h92zM644 0h-70l-421 680v-680h-58v750h85l406 -664v664h58v-750z" />
    <glyph glyph-name="uni0146" unicode="&#x146;" horiz-adv-x="593" 
d="M324 -89v-96q0 -140 -132 -159l-11 38q58 14 76 45.5t18 87.5h-43v84h92zM337 542q81 0 128.5 -44t47.5 -130v-368h-57v359q0 64 -35.5 97.5t-92.5 33.5q-76 0 -131 -54.5t-55 -149.5v-286h-57v532h57v-105q58 115 195 115z" />
    <glyph glyph-name="Ncaron" unicode="&#x147;" horiz-adv-x="739" 
d="M644 0h-70l-421 680v-680h-58v750h85l406 -664v664h58v-750zM528 995l-129 -163h-39l-129 163h64l84 -106l85 106h64z" />
    <glyph glyph-name="ncaron" unicode="&#x148;" horiz-adv-x="593" 
d="M337 542q81 0 128.5 -44t47.5 -130v-368h-57v359q0 64 -35.5 97.5t-92.5 33.5q-76 0 -131 -54.5t-55 -149.5v-286h-57v532h57v-105q58 115 195 115zM311 697l84 106h64l-129 -163h-39l-129 163h64z" />
    <glyph glyph-name="napostrophe" unicode="&#x149;" horiz-adv-x="755" 
d="M499 542q81 0 128.5 -44t47.5 -130v-368h-57v359q0 64 -35.5 97.5t-92.5 33.5q-76 0 -131 -54.5t-55 -149.5v-286h-57v532h57v-105q58 115 195 115zM183 765v-96q0 -140 -132 -159l-11 38q58 14 76 45.5t18 87.5h-43v84h92z" />
    <glyph glyph-name="Eng" unicode="&#x14a;" horiz-adv-x="739" 
d="M644 750v-825q0 -76 -32 -103.5t-87 -27.5h-41v52h27q43 0 59.5 18t16.5 59v77l-435 675v-675h-57v750h85l407 -664v664h57z" />
    <glyph glyph-name="eng" unicode="&#x14b;" horiz-adv-x="580" 
d="M331 542q80 0 127 -44t47 -130v-443q0 -76 -32 -103.5t-87 -27.5h-41v52h27q43 0 59.5 18t16.5 59v436q0 64 -34.5 97.5t-89.5 33.5q-73 0 -127.5 -54.5t-54.5 -149.5v-286h-57v532h57v-100q56 110 189 110z" />
    <glyph glyph-name="Omacron" unicode="&#x14c;" horiz-adv-x="844" 
d="M423 714q-95 0 -165.5 -50t-103 -125t-32.5 -162q0 -64 19.5 -124t55.5 -109t95 -78.5t132 -29.5q95 0 164.5 49.5t101.5 125t32 163.5q0 65 -19 124.5t-55 108.5t-94 78t-131 29zM423 -19q-87 0 -158 33.5t-114.5 89.5t-67 125.5t-23.5 144.5t23.5 144.5t67.5 126
t114.5 90t158.5 33.5q87 0 157.5 -33.5t113.5 -89t66 -125t23 -144.5t-22.5 -144.5t-66 -126t-114 -90.5t-158.5 -34zM263 833v47h319v-47h-319z" />
    <glyph glyph-name="omacron" unicode="&#x14d;" horiz-adv-x="603" 
d="M303 43q82 0 136.5 59.5t54.5 161.5v7q-2 101 -57 158.5t-137 57.5q-84 0 -137.5 -59.5t-53.5 -157.5v-7q1 -100 56.5 -160t137.5 -60zM300 542q112 0 182.5 -75t70.5 -203q0 -127 -69.5 -201.5t-181.5 -74.5t-182 74.5t-70 202.5q0 127 69.5 202t180.5 75zM137 640v47
h319v-47h-319z" />
    <glyph glyph-name="Obreve" unicode="&#x14e;" horiz-adv-x="844" 
d="M423 714q-95 0 -165.5 -50t-103 -125t-32.5 -162q0 -64 19.5 -124t55.5 -109t95 -78.5t132 -29.5q95 0 164.5 49.5t101.5 125t32 163.5q0 65 -19 124.5t-55 108.5t-94 78t-131 29zM423 -19q-87 0 -158 33.5t-114.5 89.5t-67 125.5t-23.5 144.5t23.5 144.5t67.5 126
t114.5 90t158.5 33.5q87 0 157.5 -33.5t113.5 -89t66 -125t23 -144.5t-22.5 -144.5t-66 -126t-114 -90.5t-158.5 -34zM482 970h49q6 -18 6 -40q0 -44 -28 -73.5t-87 -29.5t-87 29.5t-28 73.5q0 22 6 40h49q-5 -15 -5 -31q0 -71 65 -71t65 71q0 16 -5 31z" />
    <glyph glyph-name="obreve" unicode="&#x14f;" horiz-adv-x="603" 
d="M303 43q82 0 136.5 59.5t54.5 161.5v7q-2 101 -57 158.5t-137 57.5q-84 0 -137.5 -59.5t-53.5 -157.5v-7q1 -100 56.5 -160t137.5 -60zM300 542q112 0 182.5 -75t70.5 -203q0 -127 -69.5 -201.5t-181.5 -74.5t-182 74.5t-70 202.5q0 127 69.5 202t180.5 75zM357 778h49
q6 -18 6 -40q0 -44 -28 -73.5t-87 -29.5t-87 29.5t-28 73.5q0 22 6 40h49q-5 -15 -5 -31q0 -71 65 -71t65 71q0 16 -5 31z" />
    <glyph glyph-name="Ohungarumlaut" unicode="&#x150;" horiz-adv-x="844" 
d="M423 714q-95 0 -165.5 -50t-103 -125t-32.5 -162q0 -64 19.5 -124t55.5 -109t95 -78.5t132 -29.5q95 0 164.5 49.5t101.5 125t32 163.5q0 65 -19 124.5t-55 108.5t-94 78t-131 29zM423 -19q-87 0 -158 33.5t-114.5 89.5t-67 125.5t-23.5 144.5t23.5 144.5t67.5 126
t114.5 90t158.5 33.5q87 0 157.5 -33.5t113.5 -89t66 -125t23 -144.5t-22.5 -144.5t-66 -126t-114 -90.5t-158.5 -34zM517 832h-43l42 157h54zM387 832h-43l43 159h54z" />
    <glyph glyph-name="ohungarumlaut" unicode="&#x151;" horiz-adv-x="603" 
d="M303 43q82 0 136.5 59.5t54.5 161.5v7q-2 101 -57 158.5t-137 57.5q-84 0 -137.5 -59.5t-53.5 -157.5v-7q1 -100 56.5 -160t137.5 -60zM300 542q112 0 182.5 -75t70.5 -203q0 -127 -69.5 -201.5t-181.5 -74.5t-182 74.5t-70 202.5q0 127 69.5 202t180.5 75zM388 640h-43
l43 159h54zM259 640h-43l43 159h54z" />
    <glyph glyph-name="OE" unicode="&#x152;" horiz-adv-x="1153" 
d="M122 377q0 -64 19.5 -124t55.5 -109t95 -78.5t132 -29.5q95 0 164.5 49.5t101.5 125t32 163.5q0 65 -19 124.5t-55 108.5t-94 78t-131 29q-95 0 -165.5 -50t-103 -125t-32.5 -162zM1103 0h-558q-59 -19 -122 -19q-87 0 -158 33.5t-114.5 89.5t-67 125.5t-23.5 144.5
t23.5 144.5t67.5 126t114.5 90t158.5 33.5q65 0 119 -18h540v-53h-441q63 -50 99.5 -126.5t41.5 -164.5h272v-54h-272q-4 -88 -39.5 -167t-99.5 -131h459v-54z" />
    <glyph glyph-name="oe" unicode="&#x153;" horiz-adv-x="1019" 
d="M304 43q83 0 136.5 60.5t53.5 162.5v5q-2 101 -57 158.5t-137 57.5q-84 0 -137.5 -59t-53.5 -160q0 -104 56 -164.5t139 -60.5zM557 305h354q-1 88 -49 136t-120 48q-73 0 -126 -48t-59 -136zM969 253h-414q0 -103 55 -157.5t134 -54.5q58 0 107 30.5t61 89.5h53
q-18 -87 -81.5 -130t-143.5 -43q-70 0 -127.5 34.5t-87.5 101.5q-31 -65 -89 -100.5t-134 -35.5q-112 0 -182 74.5t-70 202.5q0 127 69.5 202t180.5 75q77 0 135.5 -36t89.5 -103q30 68 89 103.5t131 35.5q99 0 161.5 -65.5t62.5 -192.5v-31z" />
    <glyph glyph-name="Racute" unicode="&#x154;" horiz-adv-x="650" 
d="M155 382h192q80 0 125 47t45 114q0 65 -43 110.5t-121 45.5h-198v-317zM559 0l-218 331h-186v-331h-60v750h256q108 0 167.5 -59t59.5 -143q0 -73 -44.5 -132t-125.5 -78l222 -338h-71zM302 832h-48l117 180l53 -39z" />
    <glyph glyph-name="racute" unicode="&#x155;" horiz-adv-x="360" 
d="M340 485h-8q-92 0 -141 -50.5t-49 -146.5v-288h-57v532h56v-104q15 54 63.5 82t116.5 28h19v-53zM235 640h-48l117 180l53 -39z" />
    <glyph glyph-name="uni0156" unicode="&#x156;" horiz-adv-x="650" 
d="M287 -89h92v-96q0 -140 -132 -159l-11 38q58 14 76 45.5t18 87.5h-43v84zM155 382h192q80 0 125 47t45 114q0 65 -43 110.5t-121 45.5h-198v-317zM630 0h-71l-218 331h-186v-331h-60v750h256q108 0 167.5 -59t59.5 -143q0 -73 -44.5 -132t-125.5 -78z" />
    <glyph glyph-name="uni0157" unicode="&#x157;" horiz-adv-x="360" 
d="M164 -89v-96q0 -140 -132 -159l-11 38q58 14 76 45.5t18 87.5h-43v84h92zM340 485h-8q-92 0 -141 -50.5t-49 -146.5v-288h-57v532h56v-104q15 54 63.5 82t116.5 28h19v-53z" />
    <glyph glyph-name="Rcaron" unicode="&#x158;" horiz-adv-x="650" 
d="M155 382h192q80 0 125 47t45 114q0 65 -43 110.5t-121 45.5h-198v-317zM559 0l-218 331h-186v-331h-60v750h256q108 0 167.5 -59t59.5 -143q0 -73 -44.5 -132t-125.5 -78l222 -338h-71zM295 832l-129 163h64l84 -106l85 106h64l-129 -163h-39z" />
    <glyph glyph-name="rcaron" unicode="&#x159;" horiz-adv-x="360" 
d="M340 485h-8q-92 0 -141 -50.5t-49 -146.5v-288h-57v532h56v-104q15 54 63.5 82t116.5 28h19v-53zM208 697l84 106h64l-129 -163h-39l-129 163h64z" />
    <glyph glyph-name="Sacute" unicode="&#x15a;" horiz-adv-x="645" 
d="M590 189q0 -100 -70.5 -154t-179.5 -54q-126 0 -204 70t-81 181h64q6 -98 68.5 -147t152.5 -49q83 0 135.5 40t52.5 109q0 49 -34 82.5t-63.5 44.5t-96.5 29q-9 3 -13 4q-44 12 -72.5 21t-63.5 26.5t-55.5 38.5t-34.5 54t-14 74q0 96 66.5 152.5t177.5 56.5
q103 0 175 -50.5t77 -153.5h-64q-4 77 -59.5 114t-131.5 37q-80 0 -130 -41t-50 -115q0 -26 6 -47t22 -36.5t29.5 -26t43 -21t47.5 -16t56 -15.5q50 -13 78 -22t64.5 -26.5t55 -37t32.5 -51t14 -71.5zM341 832h-48l117 180l53 -39z" />
    <glyph glyph-name="sacute" unicode="&#x15b;" horiz-adv-x="513" 
d="M267 291q40 -7 62.5 -12t53 -16t46.5 -25t27.5 -37.5t11.5 -55.5q0 -77 -56.5 -117t-139.5 -40q-89 0 -154 45.5t-73 127.5h62q10 -62 54.5 -91t105.5 -29q59 0 100.5 25t41.5 72q0 25 -11.5 42.5t-35.5 28t-43.5 16t-54.5 11.5q-41 7 -65 13t-54.5 17.5t-47.5 26
t-28.5 38.5t-11.5 56q0 76 56 115.5t140 39.5q85 0 139 -40.5t62 -111.5h-60q-7 50 -47 75t-99 25q-63 0 -97 -27.5t-34 -72.5q0 -21 8.5 -36.5t19 -25t33.5 -17t39.5 -11t49.5 -9.5zM266 640h-48l117 180l53 -39z" />
    <glyph glyph-name="Scircumflex" unicode="&#x15c;" horiz-adv-x="645" 
d="M590 189q0 -100 -70.5 -154t-179.5 -54q-126 0 -204 70t-81 181h64q6 -98 68.5 -147t152.5 -49q83 0 135.5 40t52.5 109q0 49 -34 82.5t-63.5 44.5t-96.5 29q-9 3 -13 4q-44 12 -72.5 21t-63.5 26.5t-55.5 38.5t-34.5 54t-14 74q0 96 66.5 152.5t177.5 56.5
q103 0 175 -50.5t77 -153.5h-64q-4 77 -59.5 114t-131.5 37q-80 0 -130 -41t-50 -115q0 -26 6 -47t22 -36.5t29.5 -26t43 -21t47.5 -16t56 -15.5q50 -13 78 -22t64.5 -26.5t55 -37t32.5 -51t14 -71.5zM326 938l-84 -106h-64l129 163h39l129 -163h-64z" />
    <glyph glyph-name="scircumflex" unicode="&#x15d;" horiz-adv-x="513" 
d="M267 291q40 -7 62.5 -12t53 -16t46.5 -25t27.5 -37.5t11.5 -55.5q0 -77 -56.5 -117t-139.5 -40q-89 0 -154 45.5t-73 127.5h62q10 -62 54.5 -91t105.5 -29q59 0 100.5 25t41.5 72q0 25 -11.5 42.5t-35.5 28t-43.5 16t-54.5 11.5q-41 7 -65 13t-54.5 17.5t-47.5 26
t-28.5 38.5t-11.5 56q0 76 56 115.5t140 39.5q85 0 139 -40.5t62 -111.5h-60q-7 50 -47 75t-99 25q-63 0 -97 -27.5t-34 -72.5q0 -21 8.5 -36.5t19 -25t33.5 -17t39.5 -11t49.5 -9.5zM253 746l-84 -106h-64l129 163h39l129 -163h-64z" />
    <glyph glyph-name="Scedilla" unicode="&#x15e;" horiz-adv-x="645" 
d="M340 -19h-2v-44h5q43 0 68 -21t25 -53t-25 -56.5t-72 -24.5q-57 0 -103 40l23 34q40 -37 81 -37q55 0 55 42q0 53 -103 53l11 69q-110 10 -177.5 78.5t-70.5 170.5h64q6 -98 68.5 -147t152.5 -49q83 0 135.5 40t52.5 109q0 49 -34 82.5t-63.5 44.5t-96.5 29q-9 3 -13 4
q-44 12 -72.5 21t-63.5 26.5t-55.5 38.5t-34.5 54t-14 74q0 96 66.5 152.5t177.5 56.5q103 0 175 -50.5t77 -153.5h-64q-4 77 -59.5 114t-131.5 37q-80 0 -130 -41t-50 -115q0 -26 6 -47t22 -36.5t29.5 -26t43 -21t47.5 -16t56 -15.5q50 -13 78 -22t64.5 -26.5t55 -37
t32.5 -51t14 -71.5q0 -100 -70.5 -154t-179.5 -54z" />
    <glyph glyph-name="scedilla" unicode="&#x15f;" horiz-adv-x="513" 
d="M468 145q0 -77 -56 -117t-139 -40v-51h5q43 0 68 -21t25 -53t-25 -56.5t-72 -24.5q-57 0 -103 40l23 34q40 -37 81 -37q55 0 55 42q0 53 -103 53l12 76q-79 8 -133 52t-61 119h62q10 -62 54.5 -91t105.5 -29q59 0 100.5 25t41.5 72q0 25 -11.5 42.5t-35.5 28t-43.5 16
t-54.5 11.5q-41 7 -65 13t-54.5 17.5t-47.5 26t-28.5 38.5t-11.5 56q0 76 56 115.5t140 39.5q85 0 139 -40.5t62 -111.5h-60q-7 50 -47 75t-99 25q-63 0 -97 -27.5t-34 -72.5q0 -21 8.5 -36.5t19 -25t33.5 -17t39.5 -11t49.5 -9.5q40 -7 62.5 -12t53 -16t46.5 -25
t27.5 -37.5t11.5 -55.5z" />
    <glyph glyph-name="Scaron" unicode="&#x160;" horiz-adv-x="645" 
d="M590 189q0 -100 -70.5 -154t-179.5 -54q-126 0 -204 70t-81 181h64q6 -98 68.5 -147t152.5 -49q83 0 135.5 40t52.5 109q0 49 -34 82.5t-63.5 44.5t-96.5 29q-9 3 -13 4q-44 12 -72.5 21t-63.5 26.5t-55.5 38.5t-34.5 54t-14 74q0 96 66.5 152.5t177.5 56.5
q103 0 175 -50.5t77 -153.5h-64q-4 77 -59.5 114t-131.5 37q-80 0 -130 -41t-50 -115q0 -26 6 -47t22 -36.5t29.5 -26t43 -21t47.5 -16t56 -15.5q50 -13 78 -22t64.5 -26.5t55 -37t32.5 -51t14 -71.5zM490 995l-129 -163h-39l-129 163h64l84 -106l85 106h64z" />
    <glyph glyph-name="scaron" unicode="&#x161;" horiz-adv-x="513" 
d="M267 291q40 -7 62.5 -12t53 -16t46.5 -25t27.5 -37.5t11.5 -55.5q0 -77 -56.5 -117t-139.5 -40q-89 0 -154 45.5t-73 127.5h62q10 -62 54.5 -91t105.5 -29q59 0 100.5 25t41.5 72q0 25 -11.5 42.5t-35.5 28t-43.5 16t-54.5 11.5q-41 7 -65 13t-54.5 17.5t-47.5 26
t-28.5 38.5t-11.5 56q0 76 56 115.5t140 39.5q85 0 139 -40.5t62 -111.5h-60q-7 50 -47 75t-99 25q-63 0 -97 -27.5t-34 -72.5q0 -21 8.5 -36.5t19 -25t33.5 -17t39.5 -11t49.5 -9.5zM258 697l84 106h64l-129 -163h-39l-129 163h64z" />
    <glyph glyph-name="uni0162" unicode="&#x162;" horiz-adv-x="616" 
d="M338 0h-22q-24 -21 -24 -50q0 -32 28.5 -52.5t62.5 -21.5v-52q-58 5 -99.5 37.5t-41.5 77.5t36 67v691h-258v53h576v-53h-258v-697z" />
    <glyph glyph-name="uni0163" unicode="&#x163;" horiz-adv-x="348" 
d="M242 0v-63h5q43 0 68 -21t25 -53t-25 -56.5t-72 -24.5q-57 0 -103 40l23 34q40 -37 81 -37q55 0 55 42q0 53 -103 53l14 87q-43 6 -67.5 35t-24.5 95v349h-108v52h108v159l57 16v-175h132v-52h-132v-351q0 -41 16.5 -59t59.5 -18h67v-52h-76z" />
    <glyph glyph-name="Tcaron" unicode="&#x164;" horiz-adv-x="616" 
d="M596 697h-258v-697h-60v697h-258v53h576v-53zM462 995l-129 -163h-39l-129 163h64l84 -106l85 106h64z" />
    <glyph glyph-name="tcaron" unicode="&#x165;" horiz-adv-x="551" 
d="M318 0h-81q-55 0 -87 27.5t-32 103.5v349h-108v52h108v159l57 16v-175h132v-52h-132v-351q0 -41 16.5 -59t59.5 -18h67v-52zM511 762v-96q0 -140 -132 -159l-11 38q58 14 76 45.5t18 87.5h-43v84h92z" />
    <glyph glyph-name="Tbar" unicode="&#x166;" horiz-adv-x="616" 
d="M338 697v-216h207v-53h-207v-428h-60v428h-197v53h197v216h-258v53h576v-53h-258z" />
    <glyph glyph-name="tbar" unicode="&#x167;" horiz-adv-x="353" 
d="M323 52v-52h-81q-55 0 -87 27.5t-32 103.5v168h-113v52h113v129h-108v52h108v159l57 16v-175h132v-52h-132v-129h127v-52h-127v-170q0 -41 16.5 -59t59.5 -18h67z" />
    <glyph glyph-name="Utilde" unicode="&#x168;" horiz-adv-x="727" 
d="M642 750v-491q0 -132 -75 -204.5t-202 -72.5t-203.5 72.5t-76.5 204.5v491h60v-484q0 -113 60.5 -172t161.5 -59q98 0 157 55.5t59 162.5v497h59zM496 958h38q0 -60 -25.5 -95t-62.5 -35q-28 0 -72 35.5t-59 35.5q-39 0 -52 -67h-44q6 59 31.5 92.5t61.5 33.5
q28 0 73 -36.5t61 -36.5q41 0 50 73z" />
    <glyph glyph-name="utilde" unicode="&#x169;" horiz-adv-x="587" 
d="M438 0v109q-55 -115 -183 -115q-78 0 -126.5 46t-48.5 135v357h57v-354q0 -65 34 -100t91 -35q73 0 123 54t50 152v283h57v-532h-54zM415 766h38q0 -60 -25.5 -95t-62.5 -35q-28 0 -72 35.5t-59 35.5q-39 0 -52 -67h-44q6 59 31.5 92.5t61.5 33.5q23 0 48.5 -18t48 -36.5
t37.5 -18.5q41 0 50 73z" />
    <glyph glyph-name="Umacron" unicode="&#x16a;" horiz-adv-x="727" 
d="M642 750v-491q0 -132 -75 -204.5t-202 -72.5t-203.5 72.5t-76.5 204.5v491h60v-484q0 -113 60.5 -172t161.5 -59q98 0 157 55.5t59 162.5v497h59zM204 833v47h319v-47h-319z" />
    <glyph glyph-name="umacron" unicode="&#x16b;" horiz-adv-x="587" 
d="M438 0v109q-55 -115 -183 -115q-78 0 -126.5 46t-48.5 135v357h57v-354q0 -65 34 -100t91 -35q73 0 123 54t50 152v283h57v-532h-54zM134 640v47h319v-47h-319z" />
    <glyph glyph-name="Ubreve" unicode="&#x16c;" horiz-adv-x="727" 
d="M642 750v-491q0 -132 -75 -204.5t-202 -72.5t-203.5 72.5t-76.5 204.5v491h60v-484q0 -113 60.5 -172t161.5 -59q98 0 157 55.5t59 162.5v497h59zM424 970h49q6 -18 6 -40q0 -44 -28 -73.5t-87 -29.5t-87 29.5t-28 73.5q0 22 6 40h49q-5 -15 -5 -31q0 -71 65 -71t65 71
q0 16 -5 31z" />
    <glyph glyph-name="ubreve" unicode="&#x16d;" horiz-adv-x="587" 
d="M438 0v109q-55 -115 -183 -115q-78 0 -126.5 46t-48.5 135v357h57v-354q0 -65 34 -100t91 -35q73 0 123 54t50 152v283h57v-532h-54zM337 778h49q6 -18 6 -40q0 -44 -28 -73.5t-87 -29.5t-87 29.5t-28 73.5q0 22 6 40h49q-5 -15 -5 -31q0 -71 65 -71t65 71q0 16 -5 31z
" />
    <glyph glyph-name="Uring" unicode="&#x16e;" horiz-adv-x="727" 
d="M642 750v-491q0 -132 -75 -204.5t-202 -72.5t-203.5 72.5t-76.5 204.5v491h60v-484q0 -113 60.5 -172t161.5 -59q98 0 157 55.5t59 162.5v497h59zM419 924q0 24 -16.5 41t-39.5 17t-39 -17t-16 -41q0 -25 16 -42.5t39 -17.5t39.5 17.5t16.5 42.5zM267 924q0 42 28 69
t68 27q41 0 69 -27t28 -69t-28 -69.5t-69 -27.5t-68.5 27.5t-27.5 69.5z" />
    <glyph glyph-name="uring" unicode="&#x16f;" horiz-adv-x="587" 
d="M438 0v109q-55 -115 -183 -115q-78 0 -126.5 46t-48.5 135v357h57v-354q0 -65 34 -100t91 -35q73 0 123 54t50 152v283h57v-532h-54zM342 732q0 24 -16.5 41t-39.5 17t-39 -17t-16 -41q0 -25 16 -42.5t39 -17.5t39.5 17.5t16.5 42.5zM190 732q0 42 28 69t68 27
q41 0 69 -27t28 -69t-28 -69.5t-69 -27.5t-68.5 27.5t-27.5 69.5z" />
    <glyph glyph-name="Uhungarumlaut" unicode="&#x170;" horiz-adv-x="727" 
d="M642 750v-491q0 -132 -75 -204.5t-202 -72.5t-203.5 72.5t-76.5 204.5v491h60v-484q0 -113 60.5 -172t161.5 -59q98 0 157 55.5t59 162.5v497h59zM447 832h-43l42 157h54zM317 832h-43l43 159h54z" />
    <glyph glyph-name="uhungarumlaut" unicode="&#x171;" horiz-adv-x="587" 
d="M438 0v109q-55 -115 -183 -115q-78 0 -126.5 46t-48.5 135v357h57v-354q0 -65 34 -100t91 -35q73 0 123 54t50 152v283h57v-532h-54zM370 640h-43l43 159h54zM241 640h-43l43 159h54z" />
    <glyph glyph-name="Uogonek" unicode="&#x172;" horiz-adv-x="727" 
d="M642 750v-491q0 -127 -69.5 -199t-187.5 -78q-9 -12 -9 -32q0 -32 28.5 -52.5t62.5 -21.5v-52q-58 5 -99.5 37.5t-41.5 77.5q0 25 13 44q-116 8 -185 79.5t-69 196.5v491h60v-484q0 -113 60.5 -172t161.5 -59q98 0 157 55.5t59 162.5v497h59z" />
    <glyph glyph-name="uogonek" unicode="&#x173;" horiz-adv-x="587" 
d="M449 -50q0 -32 28.5 -52.5t62.5 -21.5v-52q-58 5 -99.5 37.5t-41.5 77.5q0 46 38 68h1v102q-55 -115 -183 -115q-78 0 -126.5 46t-48.5 135v357h57v-354q0 -65 34 -100t91 -35q73 0 123 54t50 152v283h57v-532h-19q-24 -21 -24 -50z" />
    <glyph glyph-name="Wcircumflex" unicode="&#x174;" horiz-adv-x="977" 
d="M749 0h-66l-194 664l-195 -664h-66l-193 750h61l166 -672l194 672h68l193 -676l165 676h60zM488 938l-84 -106h-64l129 163h39l129 -163h-64z" />
    <glyph glyph-name="wcircumflex" unicode="&#x175;" horiz-adv-x="799" 
d="M603 0h-62l-142 444l-142 -444h-62l-170 532h57l146 -461l141 461h59l146 -461l141 461h59zM410 746l-84 -106h-64l129 163h39l129 -163h-64z" />
    <glyph glyph-name="Ycircumflex" unicode="&#x176;" horiz-adv-x="645" 
d="M30 750h71l223 -400l222 400h69l-261 -453v-297h-62v297zM322 938l-84 -106h-64l129 163h39l129 -163h-64z" />
    <glyph glyph-name="ycircumflex" unicode="&#x177;" horiz-adv-x="485" 
d="M465 532l-243 -640q-26 -68 -113 -68h-49v52h50q29 0 47 16.5t30 49.5l30 82l-197 508h60l164 -441l165 441h56zM235 746l-84 -106h-64l129 163h39l129 -163h-64z" />
    <glyph glyph-name="Ydieresis" unicode="&#x178;" horiz-adv-x="645" 
d="M30 750h71l223 -400l222 400h69l-261 -453v-297h-62v297zM459 917v-85h-83v85h83zM270 917v-85h-83v85h83z" />
    <glyph glyph-name="Zacute" unicode="&#x179;" horiz-adv-x="664" 
d="M60 0v53l478 644h-465v53h535v-53l-478 -643h484v-54h-554zM345 832h-48l117 180l53 -39z" />
    <glyph glyph-name="zacute" unicode="&#x17a;" horiz-adv-x="530" 
d="M118 52h350v-52h-418v52l347 428h-339v52h412v-52zM281 640h-48l117 180l53 -39z" />
    <glyph glyph-name="Zdotaccent" unicode="&#x17b;" horiz-adv-x="664" 
d="M60 0v53l478 644h-465v53h535v-53l-478 -643h484v-54h-554zM300 923h87v-91h-87v91z" />
    <glyph glyph-name="zdotaccent" unicode="&#x17c;" horiz-adv-x="530" 
d="M118 52h350v-52h-418v52l347 428h-339v52h412v-52zM239 731h87v-91h-87v91z" />
    <glyph glyph-name="Zcaron" unicode="&#x17d;" horiz-adv-x="664" 
d="M60 0v53l478 644h-465v53h535v-53l-478 -643h484v-54h-554zM498 995l-129 -163h-39l-129 163h64l84 -106l85 106h64z" />
    <glyph glyph-name="zcaron" unicode="&#x17e;" horiz-adv-x="530" 
d="M118 52h350v-52h-418v52l347 428h-339v52h412v-52zM287 697l84 106h64l-129 -163h-39l-129 163h64z" />
    <glyph glyph-name="longs" unicode="&#x17f;" horiz-adv-x="293" 
d="M303 710h-59q-43 0 -59.5 -18t-16.5 -59v-633h-57v480h-91v52h91v99q0 76 32 103.5t87 27.5h73v-52z" />
    <glyph glyph-name="florin" unicode="&#x192;" horiz-adv-x="337" 
d="M317 710h-56q-43 0 -61 -17.5t-18 -65.5v-95h121v-52h-121v-570q0 -33 -8.5 -56.5t-19 -34.5t-30.5 -17t-31.5 -7t-33.5 -1h-39v47h41q34 0 49 15t15 67v557h-91v52h91v99q0 43 10.5 71.5t30 40.5t36.5 15.5t42 3.5h73v-52z" />
    <glyph glyph-name="uni0218" unicode="&#x218;" horiz-adv-x="645" 
d="M380 -89v-96q0 -140 -132 -159l-11 38q58 14 76 45.5t18 87.5h-43v84h92zM590 189q0 -100 -70.5 -154t-179.5 -54q-126 0 -204 70t-81 181h64q6 -98 68.5 -147t152.5 -49q83 0 135.5 40t52.5 109q0 49 -34 82.5t-63.5 44.5t-96.5 29q-9 3 -13 4q-44 12 -72.5 21
t-63.5 26.5t-55.5 38.5t-34.5 54t-14 74q0 96 66.5 152.5t177.5 56.5q103 0 175 -50.5t77 -153.5h-64q-4 77 -59.5 114t-131.5 37q-80 0 -130 -41t-50 -115q0 -26 6 -47t22 -36.5t29.5 -26t43 -21t47.5 -16t56 -15.5q50 -13 78 -22t64.5 -26.5t55 -37t32.5 -51t14 -71.5z
" />
    <glyph glyph-name="uni0219" unicode="&#x219;" horiz-adv-x="513" 
d="M302 -89v-96q0 -140 -132 -159l-11 38q58 14 76 45.5t18 87.5h-43v84h92zM267 291q40 -7 62.5 -12t53 -16t46.5 -25t27.5 -37.5t11.5 -55.5q0 -77 -56.5 -117t-139.5 -40q-89 0 -154 45.5t-73 127.5h62q10 -62 54.5 -91t105.5 -29q59 0 100.5 25t41.5 72q0 25 -11.5 42.5
t-35.5 28t-43.5 16t-54.5 11.5q-41 7 -65 13t-54.5 17.5t-47.5 26t-28.5 38.5t-11.5 56q0 76 56 115.5t140 39.5q85 0 139 -40.5t62 -111.5h-60q-7 50 -47 75t-99 25q-63 0 -97 -27.5t-34 -72.5q0 -21 8.5 -36.5t19 -25t33.5 -17t39.5 -11t49.5 -9.5z" />
    <glyph glyph-name="uni021A" unicode="&#x21a;" horiz-adv-x="616" 
d="M357 -89v-96q0 -140 -132 -159l-11 38q58 14 76 45.5t18 87.5h-43v84h92zM596 697h-258v-697h-60v697h-258v53h576v-53z" />
    <glyph glyph-name="uni021B" unicode="&#x21b;" horiz-adv-x="348" 
d="M294 -89v-96q0 -140 -132 -159l-11 38q58 14 76 45.5t18 87.5h-43v84h92zM318 0h-81q-55 0 -87 27.5t-32 103.5v349h-108v52h108v159l57 16v-175h132v-52h-132v-351q0 -41 16.5 -59t59.5 -18h67v-52z" />
    <glyph glyph-name="circumflex" unicode="&#x2c6;" horiz-adv-x="297" 
d="M148 746l-84 -106h-64l129 163h39l129 -163h-64z" />
    <glyph glyph-name="caron" unicode="&#x2c7;" horiz-adv-x="297" 
d="M149 697l84 106h64l-129 -163h-39l-129 163h64z" />
    <glyph glyph-name="uni02C9" unicode="&#x2c9;" horiz-adv-x="319" 
d="M0 832v47h319v-47h-319z" />
    <glyph glyph-name="breve" unicode="&#x2d8;" horiz-adv-x="230" 
d="M175 778h49q6 -18 6 -40q0 -44 -28 -73.5t-87 -29.5t-87 29.5t-28 73.5q0 22 6 40h49q-5 -15 -5 -31q0 -71 65 -71t65 71q0 16 -5 31z" />
    <glyph glyph-name="dotaccent" unicode="&#x2d9;" horiz-adv-x="87" 
d="M0 731h87v-91h-87v91z" />
    <glyph glyph-name="ring" unicode="&#x2da;" horiz-adv-x="193" 
d="M152 732q0 24 -16.5 41t-39.5 17t-39 -17t-16 -41q0 -25 16 -42.5t39 -17.5t39.5 17.5t16.5 42.5zM0 732q0 42 28 69t68 27q41 0 69 -27t28 -69t-28 -69.5t-69 -27.5t-68.5 27.5t-27.5 69.5z" />
    <glyph glyph-name="ogonek" unicode="&#x2db;" horiz-adv-x="141" 
d="M50 -50q0 -32 28.5 -52.5t62.5 -21.5v-52q-58 5 -99.5 37.5t-41.5 77.5q0 46 38 68h45q-33 -24 -33 -57z" />
    <glyph glyph-name="tilde" unicode="&#x2dc;" horiz-adv-x="315" 
d="M277 766h38q0 -60 -25.5 -95t-62.5 -35q-28 0 -72 35.5t-59 35.5q-39 0 -52 -67h-44q6 59 31.5 92.5t61.5 33.5q29 0 73 -36.5t61 -36.5q41 0 50 73z" />
    <glyph glyph-name="hungarumlaut" unicode="&#x2dd;" horiz-adv-x="226" 
d="M172 640h-43l43 159h54zM43 640h-43l43 159h54z" />
    <glyph glyph-name="Delta" unicode="&#x394;" horiz-adv-x="738" 
d="M638 53l-270 623l-270 -623h540zM698 0h-658v53l301 697h56l301 -697v-53z" />
    <glyph glyph-name="Omega" unicode="&#x3a9;" horiz-adv-x="802" 
d="M663 53v-53h-226v176q120 18 185.5 96.5t65.5 177.5q0 109 -75.5 188t-211.5 79t-211.5 -79t-75.5 -188q0 -99 65.5 -177.5t185.5 -96.5v-176h-226v53h169v88q-118 24 -183 111.5t-65 197.5q0 84 36.5 154.5t115.5 117t189 46.5q162 0 251.5 -94t89.5 -223
q1 -110 -64.5 -198t-183.5 -112v-88h169z" />
    <glyph glyph-name="mu" unicode="&#x3bc;" horiz-adv-x="641" 
d="M581 0h-38q-84 0 -97 79q-49 -91 -166 -91q-94 0 -138 58v-252h-57v738h57v-332q0 -77 37.5 -118.5t105.5 -41.5q71 0 115.5 46t44.5 144v302h57v-420q0 -33 10.5 -46t35.5 -13h33v-53z" />
    <glyph glyph-name="pi" unicode="&#x3c0;" horiz-adv-x="682" 
d="M489 485v-371q0 -37 14 -48.5t47 -11.5h32v-54h-50q-50 0 -75 23.5t-25 80.5v381h-191v-485h-57v485h-164v48h441q140 0 201 39v-55q-58 -32 -166 -32h-7z" />
    <glyph glyph-name="uni1E02" unicode="&#x1e02;" horiz-adv-x="666" 
d="M155 54h217q83 0 128.5 47.5t45.5 112.5q0 64 -44 110t-122 46h-225v-316zM155 423h194q80 0 124.5 43.5t44.5 101.5q0 53 -38.5 91t-106.5 38h-218v-274zM471 402q68 -23 104 -75.5t36 -114.5q0 -86 -62.5 -149.5t-171.5 -63.5h-2l-280 1v750h292q92 0 141 -52t49 -123
q0 -54 -27.5 -100.5t-78.5 -72.5zM252 923h87v-91h-87v91z" />
    <glyph glyph-name="uni1E03" unicode="&#x1e03;" horiz-adv-x="622" 
d="M327 37q76 0 131 57.5t55 168.5t-54.5 166.5t-131.5 55.5q-76 0 -131 -55.5t-55 -166.5q0 -112 55 -169t131 -57zM284 731h87v-91h-87v91zM343 542q93 0 161 -70t68 -205q0 -137 -70 -208t-169 -71q-69 0 -120.5 33.5t-73.5 82.5v-104h-54v762h57v-346q20 53 76 89.5
t125 36.5z" />
    <glyph glyph-name="uni1E0A" unicode="&#x1e0a;" horiz-adv-x="736" 
d="M155 54h147q75 0 136 28.5t98 76t57 105.5t20 121q0 129 -79 220.5t-222 91.5h-157v-643zM95 750h224q86 0 155.5 -30t112.5 -81t66 -115t23 -135q0 -73 -24 -141t-69 -124t-118.5 -90t-165.5 -34h-204v750zM221 923h87v-91h-87v91z" />
    <glyph glyph-name="uni1E0B" unicode="&#x1e0b;" horiz-adv-x="622" 
d="M296 41q76 0 130.5 57t54.5 169t-55 167t-131 55q-77 0 -131.5 -55.5t-54.5 -166.5t55 -168.5t132 -57.5zM237 731h87v-91h-87v91zM537 0h-54v101q-22 -46 -75 -79.5t-121 -33.5q-97 0 -167 71.5t-70 208.5q0 136 70 205t167 69q65 0 117.5 -30t75.5 -74v324h57v-762z
" />
    <glyph glyph-name="uni1E1E" unicode="&#x1e1e;" horiz-adv-x="573" 
d="M155 0h-60v750h458v-53h-398v-291h370v-54h-370v-352zM271 923h87v-91h-87v91z" />
    <glyph glyph-name="uni1E1F" unicode="&#x1e1f;" horiz-adv-x="323" 
d="M303 710h-59q-43 0 -59.5 -18t-16.5 -59v-101h121v-52h-121v-480h-57v480h-91v52h91v99q0 76 32 103.5t87 27.5h73v-52zM219 923h87v-91h-87v91z" />
    <glyph glyph-name="uni1E40" unicode="&#x1e40;" horiz-adv-x="890" 
d="M795 0h-59v687l-269 -687h-49l-265 685v-685h-58v750h96l253 -666l254 666h97v-750zM402 923h87v-91h-87v91z" />
    <glyph glyph-name="uni1E41" unicode="&#x1e41;" horiz-adv-x="889" 
d="M809 0h-57v364q0 63 -34 95.5t-85 32.5q-63 0 -110.5 -46t-47.5 -126v-320h-56v364q0 62 -33 95t-85 33q-63 0 -111 -46t-48 -126v-320h-57v532h56v-90q21 47 65 73.5t99 26.5q57 0 101 -28t58 -81q22 53 71 81t108 28q71 0 118.5 -40t47.5 -114v-388zM403 731h87v-91
h-87v91z" />
    <glyph glyph-name="uni1E56" unicode="&#x1e56;" horiz-adv-x="622" 
d="M155 374h193q82 0 127.5 47.5t45.5 115.5q0 67 -45 114.5t-126 47.5h-195v-325zM95 750h266q105 0 163 -61t58 -147q0 -90 -62 -154.5t-172 -64.5h-193v-323h-60v750zM231 923h87v-91h-87v91z" />
    <glyph glyph-name="uni1E57" unicode="&#x1e57;" horiz-adv-x="621" 
d="M327 44q76 0 130.5 56t54.5 165t-54 164.5t-130 55.5t-131.5 -55.5t-55.5 -164.5q0 -110 55 -165.5t131 -55.5zM342 542q94 0 161.5 -69.5t67.5 -204.5q0 -136 -69.5 -204.5t-172.5 -68.5q-129 0 -187 99v-300h-57v738h56v-117q19 54 75.5 90.5t125.5 36.5zM282 731h87
v-91h-87v91z" />
    <glyph glyph-name="uni1E60" unicode="&#x1e60;" horiz-adv-x="645" 
d="M590 189q0 -100 -70.5 -154t-179.5 -54q-126 0 -204 70t-81 181h64q6 -98 68.5 -147t152.5 -49q83 0 135.5 40t52.5 109q0 49 -34 82.5t-63.5 44.5t-96.5 29q-9 3 -13 4q-44 12 -72.5 21t-63.5 26.5t-55.5 38.5t-34.5 54t-14 74q0 96 66.5 152.5t177.5 56.5
q103 0 175 -50.5t77 -153.5h-64q-4 77 -59.5 114t-131.5 37q-80 0 -130 -41t-50 -115q0 -26 6 -47t22 -36.5t29.5 -26t43 -21t47.5 -16t56 -15.5q50 -13 78 -22t64.5 -26.5t55 -37t32.5 -51t14 -71.5zM268 923h87v-91h-87v91z" />
    <glyph glyph-name="uni1E61" unicode="&#x1e61;" horiz-adv-x="513" 
d="M267 291q40 -7 62.5 -12t53 -16t46.5 -25t27.5 -37.5t11.5 -55.5q0 -77 -56.5 -117t-139.5 -40q-89 0 -154 45.5t-73 127.5h62q10 -62 54.5 -91t105.5 -29q59 0 100.5 25t41.5 72q0 25 -11.5 42.5t-35.5 28t-43.5 16t-54.5 11.5q-41 7 -65 13t-54.5 17.5t-47.5 26
t-28.5 38.5t-11.5 56q0 76 56 115.5t140 39.5q85 0 139 -40.5t62 -111.5h-60q-7 50 -47 75t-99 25q-63 0 -97 -27.5t-34 -72.5q0 -21 8.5 -36.5t19 -25t33.5 -17t39.5 -11t49.5 -9.5zM218 731h87v-91h-87v91z" />
    <glyph glyph-name="uni1E6A" unicode="&#x1e6a;" horiz-adv-x="616" 
d="M596 697h-258v-697h-60v697h-258v53h576v-53zM270 923h87v-91h-87v91z" />
    <glyph glyph-name="uni1E6B" unicode="&#x1e6b;" horiz-adv-x="348" 
d="M318 0h-81q-55 0 -87 27.5t-32 103.5v349h-108v52h108v159l57 16v-175h132v-52h-132v-351q0 -41 16.5 -59t59.5 -18h67v-52zM119 841h87v-91h-87v91z" />
    <glyph glyph-name="Wgrave" unicode="&#x1e80;" horiz-adv-x="977" 
d="M749 0h-66l-194 664l-195 -664h-66l-193 750h61l166 -672l194 672h68l193 -676l165 676h60zM392 1012l117 -180h-48l-122 141z" />
    <glyph glyph-name="wgrave" unicode="&#x1e81;" horiz-adv-x="799" 
d="M603 0h-62l-142 444l-142 -444h-62l-170 532h57l146 -461l141 461h59l146 -461l141 461h59zM319 820l117 -180h-48l-122 141z" />
    <glyph glyph-name="Wacute" unicode="&#x1e82;" horiz-adv-x="977" 
d="M749 0h-66l-194 664l-195 -664h-66l-193 750h61l166 -672l194 672h68l193 -676l165 676h60zM507 832h-48l117 180l53 -39z" />
    <glyph glyph-name="wacute" unicode="&#x1e83;" horiz-adv-x="799" 
d="M603 0h-62l-142 444l-142 -444h-62l-170 532h57l146 -461l141 461h59l146 -461l141 461h59zM421 640h-48l117 180l53 -39z" />
    <glyph glyph-name="Wdieresis" unicode="&#x1e84;" horiz-adv-x="977" 
d="M749 0h-66l-194 664l-195 -664h-66l-193 750h61l166 -672l194 672h68l193 -676l165 676h60zM625 917v-85h-83v85h83zM436 917v-85h-83v85h83z" />
    <glyph glyph-name="wdieresis" unicode="&#x1e85;" horiz-adv-x="799" 
d="M603 0h-62l-142 444l-142 -444h-62l-170 532h57l146 -461l141 461h59l146 -461l141 461h59zM540 721v-81h-79v81h79zM353 721v-81h-79v81h79z" />
    <glyph glyph-name="Ygrave" unicode="&#x1ef2;" horiz-adv-x="645" 
d="M30 750h71l223 -400l222 400h69l-261 -453v-297h-62v297zM251 1012l117 -180h-48l-122 141z" />
    <glyph glyph-name="ygrave" unicode="&#x1ef3;" horiz-adv-x="485" 
d="M465 532l-243 -640q-26 -68 -113 -68h-49v52h50q29 0 47 16.5t30 49.5l30 82l-197 508h60l164 -441l165 441h56zM159 820l117 -180h-48l-122 141z" />
    <glyph glyph-name="endash" unicode="&#x2013;" 
d="M50 273v52h500v-52h-500z" />
    <glyph glyph-name="emdash" unicode="&#x2014;" horiz-adv-x="1100" 
d="M50 273v52h1000v-52h-1000z" />
    <glyph glyph-name="quoteleft" unicode="&#x2018;" horiz-adv-x="223" 
d="M40 529v96q0 140 132 159l11 -38q-58 -14 -76 -45.5t-18 -87.5h43v-84h-92z" />
    <glyph glyph-name="quoteright" unicode="&#x2019;" horiz-adv-x="223" 
d="M183 750v-96q0 -140 -132 -159l-11 38q58 14 76 45.5t18 87.5h-43v84h92z" />
    <glyph glyph-name="quotesinglbase" unicode="&#x201a;" horiz-adv-x="223" 
d="M183 91v-96q0 -140 -132 -159l-11 38q58 14 76 45.5t18 87.5h-43v84h92z" />
    <glyph glyph-name="quotedblleft" unicode="&#x201c;" horiz-adv-x="403" 
d="M220 529v96q0 140 132 159l11 -38q-58 -14 -76 -45.5t-18 -87.5h43v-84h-92zM40 529v96q0 140 132 159l11 -38q-58 -14 -76 -45.5t-18 -87.5h43v-84h-92z" />
    <glyph glyph-name="quotedblright" unicode="&#x201d;" horiz-adv-x="403" 
d="M363 762v-96q0 -140 -132 -159l-11 38q58 14 76 45.5t18 87.5h-43v84h92zM183 762v-96q0 -140 -132 -159l-11 38q58 14 76 45.5t18 87.5h-43v84h92z" />
    <glyph glyph-name="quotedblbase" unicode="&#x201e;" horiz-adv-x="403" 
d="M363 91v-96q0 -140 -132 -159l-11 38q58 14 76 45.5t18 87.5h-43v84h92zM183 91v-96q0 -140 -132 -159l-11 38q58 14 76 45.5t18 87.5h-43v84h92z" />
    <glyph glyph-name="dagger" unicode="&#x2020;" horiz-adv-x="559" 
d="M60 459v52h192v239h55v-239h192v-52h-192v-559h-55v559h-192z" />
    <glyph glyph-name="daggerdbl" unicode="&#x2021;" horiz-adv-x="559" 
d="M307 161h192v-52h-192v-209h-55v209h-192v52h192v328h-192v52h192v209h55v-209h192v-52h-192v-328z" />
    <glyph glyph-name="bullet" unicode="&#x2022;" horiz-adv-x="225" 
d="M60 373h105v-106h-105v106z" />
    <glyph glyph-name="ellipsis" unicode="&#x2026;" horiz-adv-x="977" 
d="M776 88h84v-88h-84v88zM437 88h84v-88h-84v88zM117 88h84v-88h-84v88z" />
    <glyph glyph-name="perthousand" unicode="&#x2030;" horiz-adv-x="1316" 
d="M1229 163q0 55 -34 89.5t-85 34.5t-84.5 -34.5t-33.5 -89.5q0 -56 33.5 -91t84.5 -35t85 35t34 91zM817 163q0 55 -34 89.5t-85 34.5t-84.5 -34.5t-33.5 -89.5q0 -56 33.5 -91t84.5 -35t85 35t34 91zM935 162q0 77 50 126t123 49q77 0 127.5 -48.5t50.5 -126.5
q0 -76 -51 -126t-127 -50q-73 0 -123 50t-50 126zM523 162q0 77 50 126t123 49q77 0 127.5 -48.5t50.5 -126.5q0 -76 -51 -126t-127 -50q-73 0 -123 50t-50 126zM334 586q0 55 -34 89.5t-85 34.5t-84.5 -34.5t-33.5 -89.5q0 -56 33.5 -91t84.5 -35t85 35t34 91zM249 0h-52
l478 750h52zM40 585q0 77 50 126t123 49q77 0 127.5 -48.5t50.5 -126.5q0 -76 -51 -126t-127 -50q-73 0 -123 50t-50 126z" />
    <glyph glyph-name="guilsinglleft" unicode="&#x2039;" horiz-adv-x="299" 
d="M249 140l-41 -38l-178 202l178 202l41 -38l-145 -164z" />
    <glyph glyph-name="guilsinglright" unicode="&#x203a;" horiz-adv-x="299" 
d="M50 468l41 38l178 -202l-178 -202l-41 38l145 164z" />
    <glyph glyph-name="fraction" unicode="&#x2044;" horiz-adv-x="670" 
d="M122 0h-52l478 750h52z" />
    <glyph glyph-name="Euro" unicode="&#x20ac;" horiz-adv-x="640" 
d="M562 243h58q-1 -124 -68.5 -189.5t-182.5 -65.5q-107 0 -179 72t-90 216h-90v45h86q-2 34 -2 52t2 52h-86v45h90q19 142 91 211t182 69q114 0 178 -59.5t66 -184.5h-57q0 190 -189 190q-86 0 -141 -56t-72 -170h285v-45h-289q-2 -34 -2 -52t2 -52h289v-45h-285
q16 -116 72 -176t144 -60q189 0 188 203z" />
    <glyph glyph-name="uni2113" unicode="&#x2113;" horiz-adv-x="465" 
d="M195 485l68 34q114 57 114 137q0 29 -14.5 44t-39.5 15q-36 0 -62 -29t-37 -76zM182 428l-73 -317q-3 -15 -3 -26q0 -24 12.5 -36.5t31.5 -12.5q32 0 74 33t80 83l23 -20q-96 -144 -196 -144q-39 0 -61.5 24t-22.5 66q0 25 7 53l64 275l-88 -46l13 56l87 44l31 137
q19 83 66.5 124t101.5 41q42 0 74 -23.5t32 -70.5t-34 -95.5t-102 -83.5z" />
    <glyph glyph-name="afii61352" unicode="&#x2116;" horiz-adv-x="1181" 
d="M1084 598q0 55 -34 89.5t-85 34.5t-84.5 -34.5t-33.5 -89.5q0 -56 33.5 -91t84.5 -35t85 35t34 91zM644 0h-70l-421 680v-680h-58v750h85l406 -664v664h58v-750zM790 597q0 77 50 126t123 49q77 0 127.5 -48.5t50.5 -126.5q0 -76 -51 -126t-127 -50q-73 0 -123 50
t-50 126z" />
    <glyph glyph-name="trademark" unicode="&#x2122;" horiz-adv-x="731" 
d="M691 390h-45v263l-96 -263h-52l-96 263v-263h-45v312h74l94 -268l94 268h72v-312zM317 702v-41h-116v-271h-45v271h-116v41h277z" />
    <glyph glyph-name="estimated" unicode="&#x212e;" horiz-adv-x="530" 
d="M389 293v120q-41 56 -116 56q-44 0 -82 -20.5t-60 -56.5v-99h258zM280 31q126 0 149 120h46q-11 -80 -66.5 -121.5t-132.5 -41.5q-97 0 -161.5 65t-64.5 194t64 197t159 68q87 0 147 -55.5t60 -158.5q0 -34 -3 -52h-346v-129q45 -86 149 -86z" />
    <glyph glyph-name="onethird" unicode="&#x2153;" horiz-adv-x="1000" 
d="M869 228q38 -15 58.5 -45t20.5 -67q0 -53 -41 -90.5t-112 -37.5q-70 0 -115 39t-45 105v8h51q0 -2 -0.5 -5.5t-0.5 -5.5q0 -45 30.5 -70.5t79.5 -25.5q48 0 74.5 22.5t26.5 57.5q0 38 -31 63.5t-88 25.5h-17v42h15q53 0 82.5 25.5t29.5 62.5q0 36 -27 54t-68 18
q-44 0 -72.5 -25t-28.5 -74v-7h-48v8q0 68 44 106t109 38q63 0 103 -31.5t40 -84.5q0 -35 -19 -63t-51 -43zM306 295h-247v46h101v329q-46 -31 -107 -37v45q67 11 114 58h39v-395h100v-46zM290 0h-52l478 750h52z" />
    <glyph glyph-name="twothirds" unicode="&#x2154;" horiz-adv-x="1000" 
d="M889 228q38 -15 58.5 -45t20.5 -67q0 -53 -41 -90.5t-112 -37.5q-70 0 -115 39t-45 105v8h51q0 -2 -0.5 -5.5t-0.5 -5.5q0 -45 30.5 -70.5t79.5 -25.5q48 0 74.5 22.5t26.5 57.5q0 38 -31 63.5t-88 25.5h-17v42h15q53 0 82.5 25.5t29.5 62.5q0 36 -27 54t-68 18
q-44 0 -72.5 -25t-28.5 -74v-7h-48v8q0 68 44 106t109 38q63 0 103 -31.5t40 -84.5q0 -35 -19 -63t-51 -43zM315 0h-52l478 750h52zM349 296h-308v45l113 102q8 7 25 22.5t24 22t20 19t18.5 18.5t14.5 17t12.5 18.5t8 17.5t6 19.5t1.5 19.5q0 42 -25.5 64.5t-66.5 22.5
q-44 0 -74 -26.5t-31 -79.5h-50q2 72 48 112t109 40q58 0 99 -34.5t41 -94.5q0 -50 -29.5 -89.5t-100.5 -102.5l-95 -87h240v-46z" />
    <glyph glyph-name="onefifth" unicode="&#x2155;" horiz-adv-x="1000" 
d="M790 292q64 0 101.5 -41.5t37.5 -103.5q0 -66 -40.5 -110.5t-112.5 -44.5q-63 0 -108 36.5t-45 101.5q0 2 0.5 7t0.5 7h50q-1 -5 -1 -15q0 -46 29 -69.5t74 -23.5q49 0 77 30t28 74q0 106 -103 106q-53 0 -90 -35h-45l37 230h221v-45h-185l-21 -128q39 24 95 24zM324 295
h-247v46h101v329q-46 -31 -107 -37v45q67 11 114 58h39v-395h100v-46zM308 0h-52l478 750h52z" />
    <glyph glyph-name="twofifths" unicode="&#x2156;" horiz-adv-x="1000" 
d="M811 292q64 0 101.5 -41.5t37.5 -103.5q0 -66 -40.5 -110.5t-112.5 -44.5q-63 0 -108 36.5t-45 101.5q0 2 0.5 7t0.5 7h50q-1 -5 -1 -15q0 -46 29 -69.5t74 -23.5q49 0 77 30t28 74q0 106 -103 106q-53 0 -90 -35h-45l37 230h221v-45h-185l-21 -128q39 24 95 24zM329 0
h-52l478 750h52zM363 296h-308v45l113 102q8 7 25 22.5t24 22t20 19t18.5 18.5t14.5 17t12.5 18.5t8 17.5t6 19.5t1.5 19.5q0 42 -25.5 64.5t-66.5 22.5q-44 0 -74 -26.5t-31 -79.5h-50q2 72 48 112t109 40q58 0 99 -34.5t41 -94.5q0 -50 -29.5 -89.5t-100.5 -102.5l-95 -87
h240v-46z" />
    <glyph glyph-name="threefifths" unicode="&#x2157;" horiz-adv-x="1000" 
d="M799 292q64 0 101.5 -41.5t37.5 -103.5q0 -66 -40.5 -110.5t-112.5 -44.5q-63 0 -108 36.5t-45 101.5q0 2 0.5 7t0.5 7h50q-1 -5 -1 -15q0 -46 29 -69.5t74 -23.5q49 0 77 30t28 74q0 106 -103 106q-53 0 -90 -35h-45l37 230h221v-45h-185l-21 -128q39 24 95 24zM317 0
h-52l478 750h52zM296 528q38 -15 58.5 -45t20.5 -67q0 -53 -41 -90.5t-112 -37.5q-70 0 -115 39t-45 105v8h51q0 -2 -0.5 -5.5t-0.5 -5.5q0 -45 30.5 -70.5t79.5 -25.5q48 0 74.5 22.5t26.5 57.5q0 38 -31 63.5t-88 25.5h-17v42h15q53 0 82.5 25.5t29.5 62.5q0 36 -27 54
t-68 18q-44 0 -72.5 -25t-28.5 -74v-7h-48v8q0 68 44 106t109 38q63 0 103 -31.5t40 -84.5q0 -35 -19 -63t-51 -43z" />
    <glyph glyph-name="fourfifths" unicode="&#x2158;" horiz-adv-x="1000" 
d="M821 292q64 0 101.5 -41.5t37.5 -103.5q0 -66 -40.5 -110.5t-112.5 -44.5q-63 0 -108 36.5t-45 101.5q0 2 0.5 7t0.5 7h50q-1 -5 -1 -15q0 -46 29 -69.5t74 -23.5q49 0 77 30t28 74q0 106 -103 106q-53 0 -90 -35h-45l37 230h221v-45h-185l-21 -128q39 24 95 24zM254 679
l-160 -235h160v235zM374 399h-75v-103h-45v104h-214v46l196 291h63v-293h75v-45zM339 0h-52l478 750h52z" />
    <glyph glyph-name="onesixth" unicode="&#x2159;" horiz-adv-x="1000" 
d="M793 35q48 0 74.5 31t26.5 74q0 42 -25 70t-72 28q-49 0 -76 -29.5t-27 -72.5q0 -42 25.5 -71.5t73.5 -29.5zM802 288q66 0 105 -44t39 -102q0 -61 -41 -107.5t-111 -46.5q-72 0 -120 54.5t-48 175.5q0 56 12 99t30 67.5t42.5 40t46 20.5t43.5 5q56 0 95 -33t39 -94h-51
q1 38 -22.5 58.5t-62.5 20.5q-22 0 -41.5 -7.5t-39 -26t-31.5 -57.5t-12 -94q42 71 128 71zM308 295h-247v46h101v329q-46 -31 -107 -37v45q67 11 114 58h39v-395h100v-46zM292 0h-52l478 750h52z" />
    <glyph glyph-name="fivesixths" unicode="&#x215a;" horiz-adv-x="1000" 
d="M796 35q48 0 74.5 31t26.5 74q0 42 -25 70t-72 28q-49 0 -76 -29.5t-27 -72.5q0 -42 25.5 -71.5t73.5 -29.5zM805 288q66 0 105 -44t39 -102q0 -61 -41 -107.5t-111 -46.5q-72 0 -120 54.5t-48 175.5q0 56 12 99t30 67.5t42.5 40t46 20.5t43.5 5q56 0 95 -33t39 -94h-51
q1 38 -22.5 58.5t-62.5 20.5q-22 0 -41.5 -7.5t-39 -26t-31.5 -57.5t-12 -94q42 71 128 71zM217 588q64 0 101.5 -41.5t37.5 -103.5q0 -66 -40.5 -110.5t-112.5 -44.5q-63 0 -108 36.5t-45 101.5q0 2 0.5 7t0.5 7h50q-1 -5 -1 -15q0 -46 29 -69.5t74 -23.5q49 0 77 30t28 74
q0 106 -103 106q-53 0 -90 -35h-45l37 230h221v-45h-185l-21 -128q39 24 95 24zM295 0h-52l478 750h52z" />
    <glyph glyph-name="oneeighth" unicode="&#x215b;" horiz-adv-x="1000" 
d="M797 32q51 0 76.5 23.5t25.5 63.5q0 38 -26 60.5t-76 22.5t-76 -22.5t-26 -60.5q0 -40 25.5 -63.5t76.5 -23.5zM708 331q0 -33 23 -53.5t66 -20.5t66 20.5t23 53.5q0 31 -21.5 52.5t-67.5 21.5t-67.5 -21.5t-21.5 -52.5zM870 228q37 -15 58 -44.5t21 -69.5
q0 -55 -41 -90.5t-111 -35.5t-111 35.5t-41 90.5q0 40 21 69.5t58 44.5q-68 34 -68 105q0 55 41 86t100 31t100 -31t41 -86q0 -71 -68 -105zM305 295h-247v46h101v329q-46 -31 -107 -37v45q67 11 114 58h39v-395h100v-46zM289 0h-52l478 750h52z" />
    <glyph glyph-name="threeeighths" unicode="&#x215c;" horiz-adv-x="1000" 
d="M795 32q51 0 76.5 23.5t25.5 63.5q0 38 -26 60.5t-76 22.5t-76 -22.5t-26 -60.5q0 -40 25.5 -63.5t76.5 -23.5zM706 331q0 -33 23 -53.5t66 -20.5t66 20.5t23 53.5q0 31 -21.5 52.5t-67.5 21.5t-67.5 -21.5t-21.5 -52.5zM868 228q37 -15 58 -44.5t21 -69.5
q0 -55 -41 -90.5t-111 -35.5t-111 35.5t-41 90.5q0 40 21 69.5t58 44.5q-68 34 -68 105q0 55 41 86t100 31t100 -31t41 -86q0 -71 -68 -105zM287 0h-52l478 750h52zM287 528q38 -15 58.5 -45t20.5 -67q0 -53 -41 -90.5t-112 -37.5q-70 0 -115 39t-45 105v8h51
q0 -2 -0.5 -5.5t-0.5 -5.5q0 -45 30.5 -70.5t79.5 -25.5q48 0 74.5 22.5t26.5 57.5q0 38 -31 63.5t-88 25.5h-17v42h15q53 0 82.5 25.5t29.5 62.5q0 36 -27 54t-68 18q-44 0 -72.5 -25t-28.5 -74v-7h-48v8q0 68 44 106t109 38q63 0 103 -31.5t40 -84.5q0 -35 -19 -63
t-51 -43z" />
    <glyph glyph-name="fiveeighths" unicode="&#x215d;" horiz-adv-x="1000" 
d="M802 32q51 0 76.5 23.5t25.5 63.5q0 38 -26 60.5t-76 22.5t-76 -22.5t-26 -60.5q0 -40 25.5 -63.5t76.5 -23.5zM713 331q0 -33 23 -53.5t66 -20.5t66 20.5t23 53.5q0 31 -21.5 52.5t-67.5 21.5t-67.5 -21.5t-21.5 -52.5zM875 228q37 -15 58 -44.5t21 -69.5
q0 -55 -41 -90.5t-111 -35.5t-111 35.5t-41 90.5q0 40 21 69.5t58 44.5q-68 34 -68 105q0 55 41 86t100 31t100 -31t41 -86q0 -71 -68 -105zM216 588q64 0 101.5 -41.5t37.5 -103.5q0 -66 -40.5 -110.5t-112.5 -44.5q-63 0 -108 36.5t-45 101.5q0 2 0.5 7t0.5 7h50
q-1 -5 -1 -15q0 -46 29 -69.5t74 -23.5q49 0 77 30t28 74q0 106 -103 106q-53 0 -90 -35h-45l37 230h221v-45h-185l-21 -128q39 24 95 24zM294 0h-52l478 750h52z" />
    <glyph glyph-name="seveneighths" unicode="&#x215e;" horiz-adv-x="1000" 
d="M798 32q51 0 76.5 23.5t25.5 63.5q0 38 -26 60.5t-76 22.5t-76 -22.5t-26 -60.5q0 -40 25.5 -63.5t76.5 -23.5zM709 331q0 -33 23 -53.5t66 -20.5t66 20.5t23 53.5q0 31 -21.5 52.5t-67.5 21.5t-67.5 -21.5t-21.5 -52.5zM871 228q37 -15 58 -44.5t21 -69.5
q0 -55 -41 -90.5t-111 -35.5t-111 35.5t-41 90.5q0 40 21 69.5t58 44.5q-68 34 -68 105q0 55 41 86t100 31t100 -31t41 -86q0 -71 -68 -105zM376 737v-43l-182 -398h-50l180 393h-274v48h326zM290 0h-52l478 750h52z" />
    <glyph glyph-name="partialdiff" unicode="&#x2202;" 
d="M289 44q85 0 132 54.5t47 129.5q0 76 -50 130.5t-136 54.5q-84 0 -130.5 -52t-46.5 -126q0 -77 48.5 -134t135.5 -57zM276 750q37 0 72 -8.5t75 -33.5t69 -65.5t48.5 -111.5t19.5 -164q0 -104 -23 -180t-63.5 -118t-87 -61.5t-100.5 -19.5q-76 0 -133.5 37.5t-85 93.5
t-27.5 119q0 96 62.5 166t171.5 70q78 0 138.5 -40.5t89.5 -122.5v48q0 80 -14.5 141t-37 97t-53.5 58.5t-59 30t-58 7.5q-65 0 -110 -36t-46 -100h-64q4 95 65.5 144t150.5 49z" />
    <glyph glyph-name="product" unicode="&#x220f;" horiz-adv-x="860" 
d="M647 0h-57v700h-320v-700h-57v700h-118v50h670v-50h-118v-700z" />
    <glyph glyph-name="summation" unicode="&#x2211;" horiz-adv-x="697" 
d="M647 53v-53h-587v54l334 320l-314 324v52h535v-52h-453l309 -324l-332 -321h508z" />
    <glyph glyph-name="minus" unicode="&#x2212;" horiz-adv-x="500" 
d="M40 268v53h420v-53h-420z" />
    <glyph glyph-name="radical" unicode="&#x221a;" horiz-adv-x="609" 
d="M307 0h-59l-228 532h67l189 -466l242 684h61z" />
    <glyph glyph-name="infinity" unicode="&#x221e;" horiz-adv-x="779" 
d="M561 131q56 0 95 40.5t39 123.5t-39 123.5t-95 40.5q-59 0 -96 -43.5t-37 -120.5t37 -120.5t96 -43.5zM218 131q59 0 96 43.5t37 120.5t-37 120.5t-96 43.5q-56 0 -95 -40.5t-39 -123.5t39 -123.5t95 -40.5zM565 523q87 0 135.5 -65t48.5 -163t-48.5 -163t-135.5 -65
q-124 0 -176 135q-50 -135 -175 -135q-88 0 -136 65t-48 163t48 163t136 65q125 0 175 -135q52 135 176 135z" />
    <glyph glyph-name="integral" unicode="&#x222b;" horiz-adv-x="267" 
d="M267 703h-41q-34 0 -49 -15t-15 -67v-711q0 -33 -8.5 -56.5t-19 -34.5t-30.5 -17t-31.5 -7t-33.5 -1h-39v47h41q34 0 49 15t15 67v711q0 33 8.5 56.5t19 34.5t30.5 17t31.5 7t33.5 1h39v-47z" />
    <glyph glyph-name="approxequal" unicode="&#x2248;" horiz-adv-x="499" 
d="M459 188q-44 -22 -101 -22q-39 0 -100 23t-101 23q-75 0 -117 -36v56q46 31 113 31q39 0 100 -23.5t104 -23.5q70 0 102 31v-59zM459 338q-44 -22 -101 -22q-39 0 -100 23t-101 23q-75 0 -117 -36v56q46 31 113 31q39 0 100 -23.5t104 -23.5q70 0 102 31v-59z" />
    <glyph glyph-name="notequal" unicode="&#x2260;" horiz-adv-x="500" 
d="M296 342l-42 -101h206v-53h-229l-60 -143h-54l60 143h-137v53h160l42 101h-202v53h225l62 147h54l-62 -147h141v-53h-164z" />
    <glyph glyph-name="lessequal" unicode="&#x2264;" horiz-adv-x="500" 
d="M69 50h377v-50h-377v50zM55 354v55l364 218l25 -42l-338 -203l338 -202l-25 -43z" />
    <glyph glyph-name="greaterequal" unicode="&#x2265;" horiz-adv-x="500" 
d="M53 0v50h377v-50h-377zM55 180l338 202l-338 203l25 42l364 -218v-55l-364 -217z" />
    <glyph glyph-name="lozenge" unicode="&#x25ca;" horiz-adv-x="583" 
d="M292 630l-196 -270l196 -271l195 271zM292 -12l-272 372l272 371l271 -371z" />
    <glyph glyph-name="zero.osf" 
d="M305 45q90 1 149.5 64t59.5 181q0 122 -62.5 189t-155.5 67q-90 0 -149 -63.5t-59 -182.5q0 -123 62 -189t153 -66h2zM300 604q122 0 197.5 -81t75.5 -228q0 -146 -75 -226.5t-197 -80.5q-120 0 -197 79.5t-77 227.5q0 146 75.5 227.5t197.5 81.5z" />
    <glyph glyph-name="one.osf" 
d="M519 50v-50h-437v50h191v492h-191v50h437v-50h-191v-492h191z" />
    <glyph glyph-name="two.osf" 
d="M517 0h-423v52l178 136q94 72 133 126.5t39 109.5q0 62 -39.5 94.5t-97.5 32.5q-69 0 -118 -42.5t-48 -120.5h-57q3 105 69 160.5t158 55.5q81 0 136 -46t55 -138q0 -63 -35.5 -115.5t-133.5 -129.5l-157 -125h341v-50z" />
    <glyph glyph-name="three.osf" 
d="M395 235q75 -17 117 -68t42 -120q0 -86 -65.5 -146t-183.5 -60q-117 0 -188.5 62.5t-71.5 173.5h63v-8q0 -82 55.5 -128.5t142.5 -46.5q84 0 133 42t49 106q0 68 -56 114.5t-156 46.5h-18v51h15q93 0 147 47t54 113q0 64 -50.5 99t-120.5 35q-79 0 -132.5 -46.5
t-53.5 -134.5h-60q0 113 71.5 174.5t181.5 61.5q100 0 164 -50.5t64 -135.5q0 -66 -39 -114.5t-104 -67.5z" />
    <glyph glyph-name="four.osf" 
d="M390 539l-304 -450h304v450zM572 36h-127v-185h-55v187h-362v63l328 487h89v-499h127v-53z" />
    <glyph glyph-name="five.osf" 
d="M318 325q111 0 171.5 -65.5t60.5 -168.5q0 -109 -65.5 -181t-183.5 -72q-106 0 -177 59t-71 166v11h62v-15q0 -82 53.5 -125t131.5 -43q89 0 140 55t51 139q0 81 -48 133.5t-136 52.5q-92 0 -160 -60h-59l61 376h354v-54h-313l-43 -263q68 55 171 55z" />
    <glyph glyph-name="six.osf" 
d="M311 44q87 0 135.5 57t48.5 134q0 74 -46.5 126t-130.5 52q-86 0 -136 -54.5t-50 -130.5q0 -75 47 -129.5t132 -54.5zM326 474q109 0 171.5 -70t62.5 -166q0 -63 -27.5 -119t-85 -93.5t-133.5 -37.5q-54 0 -100.5 19.5t-87 61.5t-63.5 118t-23 180q0 93 19.5 164
t48.5 111.5t69 65.5t75 33.5t72 8.5q89 0 150.5 -49t65.5 -144h-64q-1 64 -46 100t-110 36q-30 0 -58 -7.5t-59 -30t-53.5 -58.5t-37 -97t-14.5 -141v-48q29 82 89.5 122.5t138.5 40.5z" />
    <glyph glyph-name="seven.osf" 
d="M546 529l-311 -678h-59l311 677h-473v60h532v-59z" />
    <glyph glyph-name="eight.osf" 
d="M300 39q90 0 137 44.5t47 113.5t-48 111t-136 42t-136 -42t-48 -111t47 -113.5t137 -44.5zM136 559q0 -60 43.5 -98.5t120.5 -38.5t120.5 38.5t43.5 98.5q0 57 -40.5 98t-123.5 41t-123.5 -41t-40.5 -98zM393 383q71 -20 113 -70.5t42 -121.5q0 -90 -66.5 -146.5
t-181.5 -56.5t-181.5 56.5t-66.5 146.5q0 71 42 121.5t113 70.5q-135 52 -135 179q0 89 65 138.5t163 49.5t163 -49.5t65 -138.5q0 -127 -135 -179z" />
    <glyph glyph-name="nine.osf" 
d="M283 177q90 0 139 55t49 130t-50 129.5t-138 54.5t-136.5 -55t-48.5 -131q0 -75 48.5 -129t136.5 -54zM284 604q54 0 101 -19.5t87.5 -61.5t64 -118.5t23.5 -181.5q0 -92 -19 -162.5t-48 -111t-68.5 -65.5t-74.5 -33.5t-72 -8.5q-89 0 -149 49t-69 144h63
q6 -64 50.5 -100t108.5 -36q30 0 58.5 8t59 30.5t53 58t37 96t14.5 138.5q0 13 -2 25q-21 -48 -59.5 -80t-79.5 -44.5t-86 -12.5q-110 0 -173.5 71t-63.5 168q0 99 65.5 173t178.5 74z" />
    <glyph glyph-name="zero.pnum" horiz-adv-x="620" 
d="M311 46q89 0 133 86t45 232v5q0 145 -44.5 234t-137.5 89q-89 0 -133 -86t-45 -232v-5q0 -144 44 -233.5t135 -89.5h3zM308 -12q-122 0 -180 100.5t-58 280.5t58.5 280.5t181.5 100.5q122 0 180 -100.5t58 -280.5t-58.5 -280.5t-181.5 -100.5z" />
    <glyph glyph-name="one.pnum" horiz-adv-x="397" 
d="M277 0h-56v668q-69 -58 -181 -75v46q109 21 187 98h50v-737z" />
    <glyph glyph-name="two.pnum" horiz-adv-x="607" 
d="M557 0h-502v59l188 172q14 13 43 39t41 37t34.5 32.5t32 33t25.5 30t22.5 32t14.5 31t10.5 34.5t2.5 36q0 74 -47 116t-121 42q-75 0 -129 -45t-61 -135h-61q7 113 80 174.5t174 61.5q96 0 161 -55.5t65 -152.5q0 -44 -13 -82t-47 -80t-64 -72t-91 -85l-185 -168h427v-55
z" />
    <glyph glyph-name="three.pnum" horiz-adv-x="589" 
d="M390 382q75 -17 117 -68t42 -120q0 -86 -65.5 -146t-183.5 -60q-117 0 -188.5 62.5t-71.5 173.5h63v-8q0 -82 55.5 -128.5t142.5 -46.5q84 0 133 42t49 106q0 68 -56 114.5t-156 46.5h-18v51h15q93 0 147 47t54 113q0 64 -50.5 99t-120.5 35q-79 0 -132.5 -46.5
t-53.5 -134.5h-60q0 113 71.5 174.5t181.5 61.5q100 0 164 -50.5t64 -135.5q0 -66 -39 -114.5t-104 -67.5z" />
    <glyph glyph-name="four.pnum" horiz-adv-x="624" 
d="M402 688l-304 -450h304v450zM584 185h-127v-185h-55v187h-362v63l328 487h89v-499h127v-53z" />
    <glyph glyph-name="five.pnum" horiz-adv-x="607" 
d="M315 475q111 0 171.5 -65.5t60.5 -168.5q0 -109 -65.5 -181t-183.5 -72q-106 0 -177 59t-71 166v11h62v-15q0 -82 53.5 -125t131.5 -43q89 0 140 55t51 139q0 81 -48 133.5t-136 52.5q-92 0 -160 -60h-59l61 376h354v-54h-313l-43 -263q68 55 171 55z" />
    <glyph glyph-name="six.pnum" horiz-adv-x="623" 
d="M330 44q87 0 135.5 57t48.5 134q0 74 -46.5 126t-130.5 52q-86 0 -136 -54.5t-50 -130.5q0 -75 47 -129.5t132 -54.5zM345 474q109 0 171.5 -70t62.5 -166q0 -63 -27.5 -119t-85 -93.5t-133.5 -37.5q-54 0 -100.5 19.5t-87 61.5t-63.5 118t-23 180q0 93 19.5 164
t48.5 111.5t69 65.5t75 33.5t72 8.5q89 0 150.5 -49t65.5 -144h-64q-1 64 -46 100t-110 36q-30 0 -58 -7.5t-59 -30t-53.5 -58.5t-37 -97t-14.5 -141v-48q29 82 89.5 122.5t138.5 40.5z" />
    <glyph glyph-name="seven.pnum" horiz-adv-x="542" 
d="M517 678l-311 -678h-59l311 677h-473v60h532v-59z" />
    <glyph glyph-name="eight.pnum" horiz-adv-x="596" 
d="M298 39q90 0 137 44.5t47 113.5t-48 111t-136 42t-136 -42t-48 -111t47 -113.5t137 -44.5zM134 559q0 -60 43.5 -98.5t120.5 -38.5t120.5 38.5t43.5 98.5q0 57 -40.5 98t-123.5 41t-123.5 -41t-40.5 -98zM391 383q71 -20 113 -70.5t42 -121.5q0 -90 -66.5 -146.5
t-181.5 -56.5t-181.5 56.5t-66.5 146.5q0 71 42 121.5t113 70.5q-135 52 -135 179q0 89 65 138.5t163 49.5t163 -49.5t65 -138.5q0 -127 -135 -179z" />
    <glyph glyph-name="nine.pnum" horiz-adv-x="618" 
d="M292 323q90 0 139 55t49 130t-50 129.5t-138 54.5t-136.5 -55t-48.5 -131q0 -75 48.5 -129t136.5 -54zM293 750q54 0 101 -19.5t87.5 -61.5t64 -118.5t23.5 -181.5q0 -92 -19 -162.5t-48 -111t-68.5 -65.5t-74.5 -33.5t-72 -8.5q-89 0 -149 49t-69 144h63
q6 -64 50.5 -100t108.5 -36q30 0 58.5 8t59 30.5t53 58t37 96t14.5 138.5q0 13 -2 25q-21 -48 -59.5 -80t-79.5 -44.5t-86 -12.5q-110 0 -173.5 71t-63.5 168q0 99 65.5 173t178.5 74z" />
    <glyph glyph-name="zero.dnom" horiz-adv-x="380" 
d="M191 36q96 0 98 180v5q0 83 -24.5 132t-75.5 49q-96 0 -98 -180v-5q0 -82 24 -131.5t75 -49.5h1zM189 -12q-74 0 -110.5 62t-36.5 169t37 169t112 62q74 0 110.5 -62t36.5 -169t-37 -169t-112 -62z" />
    <glyph glyph-name="one.dnom" horiz-adv-x="380" 
d="M316 0h-247v46h101v329q-46 -31 -107 -37v45q67 11 114 58h39v-395h100v-46z" />
    <glyph glyph-name="two.dnom" horiz-adv-x="380" 
d="M345 0h-308v45l113 102q8 7 25 22.5t24 22t20 19t18.5 18.5t14.5 17t12.5 18.5t8 17.5t6 19.5t1.5 19.5q0 42 -25.5 64.5t-66.5 22.5q-44 0 -74 -26.5t-31 -79.5h-50q2 72 48 112t109 40q58 0 99 -34.5t41 -94.5q0 -50 -29.5 -89.5t-100.5 -102.5l-95 -87h240v-46z" />
    <glyph glyph-name="three.dnom" horiz-adv-x="380" 
d="M267 228q38 -15 58.5 -45t20.5 -67q0 -53 -41 -90.5t-112 -37.5q-70 0 -115 39t-45 105v8h51q0 -2 -0.5 -5.5t-0.5 -5.5q0 -45 30.5 -70.5t79.5 -25.5q48 0 74.5 22.5t26.5 57.5q0 38 -31 63.5t-88 25.5h-17v42h15q53 0 82.5 25.5t29.5 62.5q0 36 -27 54t-68 18
q-44 0 -72.5 -25t-28.5 -74v-7h-48v8q0 68 44 106t109 38q63 0 103 -31.5t40 -84.5q0 -35 -19 -63t-51 -43z" />
    <glyph glyph-name="four.dnom" horiz-adv-x="380" 
d="M237 383l-160 -235h160v235zM357 103h-75v-103h-45v104h-214v46l196 291h63v-293h75v-45z" />
    <glyph glyph-name="five.dnom" horiz-adv-x="380" 
d="M204 292q64 0 101.5 -41.5t37.5 -103.5q0 -66 -40.5 -110.5t-112.5 -44.5q-63 0 -108 36.5t-45 101.5q0 2 0.5 7t0.5 7h50q-1 -5 -1 -15q0 -46 29 -69.5t74 -23.5q49 0 77 30t28 74q0 106 -103 106q-53 0 -90 -35h-45l37 230h221v-45h-185l-21 -128q39 24 95 24z" />
    <glyph glyph-name="six.dnom" horiz-adv-x="380" 
d="M197 35q48 0 74.5 31t26.5 74q0 42 -25 70t-72 28q-49 0 -76 -29.5t-27 -72.5q0 -42 25.5 -71.5t73.5 -29.5zM206 288q66 0 105 -44t39 -102q0 -61 -41 -107.5t-111 -46.5q-72 0 -120 54.5t-48 175.5q0 56 12 99t30 67.5t42.5 40t46 20.5t43.5 5q56 0 95 -33t39 -94h-51
q1 38 -22.5 58.5t-62.5 20.5q-22 0 -41.5 -7.5t-39 -26t-31.5 -57.5t-12 -94q42 71 128 71z" />
    <glyph glyph-name="seven.dnom" horiz-adv-x="380" 
d="M353 441v-43l-182 -398h-50l180 393h-274v48h326z" />
    <glyph glyph-name="eight.dnom" horiz-adv-x="380" 
d="M190 32q51 0 76.5 23.5t25.5 63.5q0 38 -26 60.5t-76 22.5t-76 -22.5t-26 -60.5q0 -40 25.5 -63.5t76.5 -23.5zM101 331q0 -33 23 -53.5t66 -20.5t66 20.5t23 53.5q0 31 -21.5 52.5t-67.5 21.5t-67.5 -21.5t-21.5 -52.5zM263 228q37 -15 58 -44.5t21 -69.5
q0 -55 -41 -90.5t-111 -35.5t-111 35.5t-41 90.5q0 40 21 69.5t58 44.5q-68 34 -68 105q0 55 41 86t100 31t100 -31t41 -86q0 -71 -68 -105z" />
    <glyph glyph-name="nine.dnom" horiz-adv-x="380" 
d="M180 199q50 0 77 30t27 73q0 42 -27.5 71t-78.5 29q-47 0 -73.5 -30t-26.5 -71q0 -44 26 -73t76 -29zM182 450q72 0 120 -54.5t48 -178.5q0 -67 -17 -115t-45 -71.5t-55 -33t-56 -9.5q-56 0 -94 32.5t-41 94.5h50q2 -38 25.5 -58.5t63.5 -20.5q48 0 84.5 39t38.5 138
q-42 -63 -125 -63q-70 0 -109.5 44.5t-39.5 103.5q0 61 41 106.5t111 45.5z" />
    <glyph glyph-name="zero.numr" horiz-adv-x="380" 
d="M191 336q96 0 98 180v5q0 83 -24.5 132t-75.5 49q-96 0 -98 -180v-5q0 -82 24 -131.5t75 -49.5h1zM189 288q-74 0 -110.5 62t-36.5 169t37 169t112 62q74 0 110.5 -62t36.5 -169t-37 -169t-112 -62z" />
    <glyph glyph-name="one.numr" horiz-adv-x="380" 
d="M316 296h-247v46h101v329q-46 -31 -107 -37v45q67 11 114 58h39v-395h100v-46z" />
    <glyph glyph-name="two.numr" horiz-adv-x="380" 
d="M346 296h-308v45l113 102q8 7 25 22.5t24 22t20 19t18.5 18.5t14.5 17t12.5 18.5t8 17.5t6 19.5t1.5 19.5q0 42 -25.5 64.5t-66.5 22.5q-44 0 -74 -26.5t-31 -79.5h-50q2 72 48 112t109 40q58 0 99 -34.5t41 -94.5q0 -50 -29.5 -89.5t-100.5 -102.5l-95 -87h240v-46z" />
    <glyph glyph-name="three.numr" horiz-adv-x="380" 
d="M267 528q38 -15 58.5 -45t20.5 -67q0 -53 -41 -90.5t-112 -37.5q-70 0 -115 39t-45 105v8h51q0 -2 -0.5 -5.5t-0.5 -5.5q0 -45 30.5 -70.5t79.5 -25.5q48 0 74.5 22.5t26.5 57.5q0 38 -31 63.5t-88 25.5h-17v42h15q53 0 82.5 25.5t29.5 62.5q0 36 -27 54t-68 18
q-44 0 -72.5 -25t-28.5 -74v-7h-48v8q0 68 44 106t109 38q63 0 103 -31.5t40 -84.5q0 -35 -19 -63t-51 -43z" />
    <glyph glyph-name="four.numr" horiz-adv-x="380" 
d="M237 679l-160 -235h160v235zM357 399h-75v-103h-45v104h-214v46l196 291h63v-293h75v-45z" />
    <glyph glyph-name="five.numr" horiz-adv-x="380" 
d="M204 588q64 0 101.5 -41.5t37.5 -103.5q0 -66 -40.5 -110.5t-112.5 -44.5q-63 0 -108 36.5t-45 101.5q0 2 0.5 7t0.5 7h50q-1 -5 -1 -15q0 -46 29 -69.5t74 -23.5q49 0 77 30t28 74q0 106 -103 106q-53 0 -90 -35h-45l37 230h221v-45h-185l-21 -128q39 24 95 24z" />
    <glyph glyph-name="six.numr" horiz-adv-x="380" 
d="M197 335q48 0 74.5 31t26.5 74q0 42 -25 70t-72 28q-49 0 -76 -29.5t-27 -72.5q0 -42 25.5 -71.5t73.5 -29.5zM206 588q66 0 105 -44t39 -102q0 -61 -41 -107.5t-111 -46.5q-72 0 -120 54.5t-48 175.5q0 56 12 99t30 67.5t42.5 40t46 20.5t43.5 5q56 0 95 -33t39 -94h-51
q1 38 -22.5 58.5t-62.5 20.5q-22 0 -41.5 -7.5t-39 -26t-31.5 -57.5t-12 -94q42 71 128 71z" />
    <glyph glyph-name="seven.numr" horiz-adv-x="380" 
d="M353 737v-43l-182 -398h-50l180 393h-274v48h326z" />
    <glyph glyph-name="eight.numr" horiz-adv-x="380" 
d="M190 332q51 0 76.5 23.5t25.5 63.5q0 38 -26 60.5t-76 22.5t-76 -22.5t-26 -60.5q0 -40 25.5 -63.5t76.5 -23.5zM101 631q0 -33 23 -53.5t66 -20.5t66 20.5t23 53.5q0 31 -21.5 52.5t-67.5 21.5t-67.5 -21.5t-21.5 -52.5zM263 528q37 -15 58 -44.5t21 -69.5
q0 -55 -41 -90.5t-111 -35.5t-111 35.5t-41 90.5q0 40 21 69.5t58 44.5q-68 34 -68 105q0 55 41 86t100 31t100 -31t41 -86q0 -71 -68 -105z" />
    <glyph glyph-name="nine.numr" horiz-adv-x="380" 
d="M180 499q50 0 77 30t27 73q0 42 -27.5 71t-78.5 29q-47 0 -73.5 -30t-26.5 -71q0 -44 26 -73t76 -29zM182 750q72 0 120 -54.5t48 -178.5q0 -67 -17 -115t-45 -71.5t-55 -33t-56 -9.5q-56 0 -94 32.5t-41 94.5h50q2 -38 25.5 -58.5t63.5 -20.5q48 0 84.5 39t38.5 138
q-42 -63 -125 -63q-70 0 -109.5 44.5t-39.5 103.5q0 61 41 106.5t111 45.5z" />
    <glyph glyph-name="acute.cap" horiz-adv-x="170" 
d="M48 832h-48l117 180l53 -39z" />
    <glyph glyph-name="breve.cap" horiz-adv-x="230" 
d="M175 970h49q6 -18 6 -40q0 -44 -28 -73.5t-87 -29.5t-87 29.5t-28 73.5q0 22 6 40h49q-5 -15 -5 -31q0 -71 65 -71t65 71q0 16 -5 31z" />
    <glyph glyph-name="caron.cap" horiz-adv-x="297" 
d="M297 995l-129 -163h-39l-129 163h64l84 -106l85 106h64z" />
    <glyph glyph-name="cedilla.cap" horiz-adv-x="200" 
d="M102 6v-69h5q43 0 68 -21t25 -53t-25 -56.5t-72 -24.5q-57 0 -103 40l23 34q40 -37 81 -37q55 0 55 42q0 53 -103 53l15 92h31z" />
    <glyph glyph-name="circumflex.cap" horiz-adv-x="297" 
d="M148 938l-84 -106h-64l129 163h39l129 -163h-64z" />
    <glyph glyph-name="dieresis.cap" horiz-adv-x="272" 
d="M272 917v-85h-83v85h83zM83 917v-85h-83v85h83z" />
    <glyph glyph-name="dotaccent.cap" horiz-adv-x="87" 
d="M0 923h87v-91h-87v91z" />
    <glyph glyph-name="grave.cap" horiz-adv-x="170" 
d="M53 1012l117 -180h-48l-122 141z" />
    <glyph glyph-name="hungarumlaut.cap" horiz-adv-x="226" 
d="M173 832h-43l42 157h54zM43 832h-43l43 159h54z" />
    <glyph glyph-name="macron.cap" horiz-adv-x="319" 
d="M0 833v47h319v-47h-319z" />
    <glyph glyph-name="ring.cap" horiz-adv-x="193" 
d="M152 924q0 24 -16.5 41t-39.5 17t-39 -17t-16 -41q0 -25 16 -42.5t39 -17.5t39.5 17.5t16.5 42.5zM0 924q0 42 28 69t68 27q41 0 69 -27t28 -69t-28 -69.5t-69 -27.5t-68.5 27.5t-27.5 69.5z" />
    <glyph glyph-name="tilde.cap" horiz-adv-x="315" 
d="M277 958h38q0 -60 -25.5 -95t-62.5 -35q-28 0 -72 35.5t-59 35.5q-39 0 -52 -67h-44q6 59 31.5 92.5t61.5 33.5q29 0 73 -36.5t61 -36.5q41 0 50 73z" />
    </font>
</defs>
</svg>
